<svg xmlns="http://www.w3.org/2000/svg" xmlns:xlink="http://www.w3.org/1999/xlink" width="2280" height="200"><g fill="#FFF"><circle cx="2035" cy="173.7" r="19.7"/><path d="M2039 177.4c0-22.1-17.9-40-40-40s-40 17.9-40 40 17.9 13.9 40 13.9 40 8.2 40-13.9z"/><path d="M1974 146c0-32.2-26.1-58.4-58.4-58.4-32.2 0-58.4 26.1-58.4 58.4s26.1 40.4 58.4 40.4 58.4-8.1 58.4-40.4z"/><circle cx="1837" cy="71" r="69"/><circle cx="1774" cy="68.9" r="42.3"/><circle cx="1723.6" cy="80.3" r="26.5"/><circle cx="1684" cy="131.9" r="47.7"/><circle cx="1616" cy="152.7" r="37"/><circle cx="1560" cy="131.9" r="39"/><circle cx="1511" cy="136.9" r="49"/><circle cx="1462.4" cy="159.4" r="27.7"/><circle cx="1754" cy="131.9" r="51.7"/><circle cx="1829" cy="152.3" r="36.9"/></g><defs><path id="a" d="M2035 153.9c-1.2 0-2.3.1-3.4.3-7.2-10.2-19.1-16.8-32.6-16.8-9.5 0-18.2 3.3-25 8.8v-.2c0-32.2-26.1-58.4-58.4-58.4-4.1 0-8.1.4-12 1.2 1.5-5.7 2.4-11.7 2.4-17.9 0-38.1-30.9-69-69-69-21.7 0-41 10-53.7 25.7-3-.7-6.1-1-9.3-1-18.8 0-34.7 12.2-40.2 29.2-3.1-1.3-6.6-2-10.2-2-14.6 0-26.5 11.9-26.5 26.5 0 2.1.2 4.1.7 6-4.4-1.3-9-2-13.8-2-23.1 0-42.3 16.4-46.7 38.2-6-4.2-13.3-6.7-21.3-6.7-6.8 0-13.2 1.8-18.6 5-4.8-16.1-19.7-27.8-37.4-27.8-7 0-13.5 1.8-19.2 5.1-8.3-6.3-18.6-10.1-29.8-10.1-25.3 0-46.1 19.2-48.7 43.8-15.3 0-27.6 12.4-27.6 27.7 0 15.3 12.4 27.7 27.7 27.7 8.4 0 16-3.8 21-9.7 7.9 5.4 17.4 8.5 27.6 8.5 14.7 0 28-6.5 36.9-16.8 3.8 1.2 7.8 1.9 12.1 1.9 7.7 0 15-2.3 21-6.2 5 14.5 18.8 24.9 35 24.9 15.8 0 29.2-9.9 34.5-23.7 8.6 8.5 20.4 13.7 33.5 13.7 12.4 0 23.7-4.7 32.2-12.5 9.4 10.1 22.9 16.5 37.8 16.5 16.2 0 30.6-7.4 40.1-19.1 5 14.4 18.7 24.7 34.9 24.7 15 0 28-9 33.7-21.9 9.3 14.7 29.5 19 52.9 19 17.2 0 32.7-2.3 43.4-9.4v.4c0 22.1 17.9 13.9 40 13.9 11.8 0 22.5 2.3 29.8 1.1 1.9.6 4 1 6.2 1 10.9 0 19.7-8.8 19.7-19.7.1-11-8.8-19.9-19.7-19.9z"/></defs><clipPath id="b"><use xlink:href="#a" overflow="visible"/></clipPath><path d="M1843.2 2c-55.3 0-62.1 70.3-37.4 87.8 0 0-32.3-15.6-56.2 8.3s-9.7 56.6-9.7 56.6l195.1 20.1h183s9.8-17.4 0-39.5c-7-15.8-24.3-25.7-43.8-17.9-13.9 5.5-120.5-167.5-120.5-167.5L1843.2 2z" clip-path="url(#b)" fill="#f4f4f4"/><g fill="#FFF"><circle cx="564.9" cy="103.3" r="50"/><circle cx="620.7" cy="137.9" r="36.8"/><circle cx="674.1" cy="165.7" r="34"/><circle cx="716" cy="162.9" r="17.5"/><path d="M777.8 174.2c0-16.4-13.3-29.7-29.7-29.7s-29.7 13.3-29.7 29.7 13.3 9.7 29.7 9.7 29.7 6.7 29.7-9.7zM596.8 169.7c0-20.2-16.4-36.7-36.7-36.7s-36.7 16.4-36.7 36.7 16.4 26.7 36.7 26.7 36.7-6.5 36.7-26.7z"/><circle cx="507.4" cy="153.3" r="37.3"/><path d="M480.1 174.7c0-16.6-13.4-30-30-30s-30 13.4-30 30 13.4 20 30 20 30-3.4 30-20z"/><circle cx="499.6" cy="137.6" r="31.5"/><circle cx="444" cy="133.6" r="36.9"/><circle cx="396.1" cy="154.6" r="24"/><path d="M384.1 177.2c0-16.9-13.7-30.5-30.5-30.5s-30.5 13.7-30.5 30.5 13.7 10.5 30.5 10.5 30.5 6.4 30.5-10.5z"/></g><defs><path id="c" d="M748.1 144.4c-7.3 0-13.9 2.6-19.1 6.9-3.2-3.6-7.8-5.9-13-5.9-4.5 0-8.7 1.7-11.8 4.6-5.7-10.9-17-18.3-30.1-18.3-6 0-11.7 1.6-16.6 4.3-.9-19.5-17-35-36.8-35-2 0-3.9.2-5.8.5-.9-26.8-22.9-48.2-50-48.2-27.6 0-50 22.4-50 50 0 2.4.2 4.8.5 7.1-4.7-2.7-10.1-4.3-15.8-4.3-9.1 0-17.3 3.9-23.1 10.1-6.2-11.6-18.5-19.5-32.6-19.5-20.3 0-36.7 16.4-36.9 36.6-3.3-1.7-7-2.6-10.9-2.6-12.7 0-23.1 9.9-23.9 22.4-5.1-4-11.6-6.3-18.6-6.3-16.9 0-30.5 13.7-30.5 30.5s13.7 10.5 30.5 10.5 30.5 6.3 30.5-10.5c0-.6 0-1.2-.1-1.9 3.5 2.1 7.7 3.3 12.1 3.3 11 0 20.3-7.5 23.1-17.6 1 .9 2 1.7 3 2.5-1.4 3.5-2.2 7.3-2.2 11.2 0 16.6 13.4 20 30 20 15.2 0 27.8-2.9 29.7-16.2 6.8 7.5 16.7 12.2 27.6 12.2 7.5 0 14.5-2.2 20.3-6 6.2 8.6 18.3 11.7 32.4 11.7 20.2 0 36.7-6.4 36.7-26.7 0-1.4-.1-2.7-.2-4 6.5 5.6 14.9 9.1 24.2 9.1 7.2 0 13.9-2.1 19.6-5.6 1.7 17.2 16.2 30.6 33.8 30.6 14.7 0 27.2-9.3 32-22.4 2.8 2 6.3 3.1 10 3.1 1.1 0 2.2-.1 3.2-.3 3.2 8.6 14.9 3.8 28.9 3.8 16.4 0 29.7 6.7 29.7-9.7s-13.4-30-29.8-30z"/></defs><clipPath id="d"><use xlink:href="#c" overflow="visible"/></clipPath><path d="M564.9 53.3c30.5 0 48.9 51.1 21.7 70.5 0 0 11.2-10.9 28.3 0s12.8 35.6 5.7 40.8-105.8 29.2-105.8 29.2l-38.1-19.2s-6.3-34.7 19-50.1c12.7-7.7 21.1-7.4 21.1-7.4l-25.5-56.6 73.6-7.2zM424.9 102c23.2-12.3 43.2 13.6 43.2 24.6 0 11 2.5 29.2-18 36.4-20.5 7.2-64 26-66.7 7.6-2.7-18.4 1-35.2 12.8-39.9 11.7-4.6 0-29.6 0-29.6l28.7.9z" clip-path="url(#d)" fill="#f4f4f4"/><circle cx="1566.8" cy="145.6" r="27.6" fill="#f4f4f4"/><circle cx="1530.9" cy="169.7" r="27.1" fill="#f4f4f4"/><circle cx="1726" cy="139.9" r="39" fill="#f4f4f4"/><g fill="#FFF"><path d="M1364.5 87.5c0-5.6-4.5-10.1-10.1-10.1s-10.1 4.5-10.1 10.1 4.5 8.2 10.1 8.2 10.1-2.6 10.1-8.2z"/><circle cx="1365.5" cy="88.6" r="6.1"/><path d="M1379.4 95.7c-1.9.1-3.9.1-5.7 0-2.9-.2-5.8 0-8.6 0-3.6 0-7.2-.2-10.8 0-.6-.9 1.5-1.5 2.2-1.8 1.2-.5 2.4-.8 3.7-1 5.5-1.2 10.9-2 16.4-1 2.7.5 4.8 1.5 7.5 1.8 1.9.3 4.1.1 5.9.6.8.2 1.5.4 1.8.8-.1-.1-8.6.5-9.5.5-.9.1-1.9.1-2.9.1zM1352.6 94.2c.1-1-.5-2.1-1.2-2.8-.8-.7-1.7-1.2-2.7-1.6-1-.4-2-.9-3-1-2.2-.2-4.2 1.1-6.2 1.9-4.7 1.9-10.3 1.3-14.8 3.8 5.3-.1 10.6-.1 16-.2 1.8 0 3.6 0 5.4.1 2.2.3 4.5.8 6.5-.2z"/></g><path d="M1373.2 94c-2.3-1-6.2-.6-6.2-.6.5-.8.1-4.1-2.5-4.6-3.5-.7-5.4 2-5.4 2 .6-.9 1.1-3.8-1-7.6s-9.9-3.6-12.7 0c-.7 1.3-1.1 2.8-1.1 4.5 0 .4 0 .8.1 1.2-1.7.3-3.3 1.2-4.9 1.9-4.7 1.9-10.3 1.3-14.8 3.8 5.3-.1 10.6-.1 16-.2 1.8 0 3.6 0 5.4.1 1 .1 2.1.3 3.2.3 1.5.6 3.2.9 5 .9v.1c3.6-.2 7.3 0 10.9 0 2.9 0 5.8-.2 8.7 0 1.9.1 3.8.1 5.8 0 1 0 2-.1 2.9-.1.2 0 .7 0 1.4-.1-1.5-.2-8.5-.6-10.8-1.6z" fill="#f4f4f4"/><g fill="#FFF"><path d="M749.2 73.2c0-5.6-4.5-10.1-10.1-10.1S729 67.6 729 73.2s4.5 8.2 10.1 8.2 10.1-2.6 10.1-8.2z"/><circle cx="750.2" cy="74.3" r="6.1"/><path d="M764.2 81.4c-1.9.1-3.9.1-5.7 0-2.9-.2-5.8 0-8.6 0-3.6 0-7.2-.2-10.8 0-.6-.9 1.5-1.5 2.2-1.8 1.2-.5 2.4-.8 3.7-1 5.5-1.2 10.9-2 16.4-1 2.7.5 4.8 1.5 7.5 1.8 1.9.3 4.1.1 5.9.6.8.2 1.5.4 1.8.8-.1-.1-8.6.5-9.5.5-1 0-2 .1-2.9.1zM737.3 79.9c.1-1-.5-2.1-1.2-2.8-.8-.7-1.7-1.2-2.7-1.6-1-.4-2-.9-3-1-2.2-.2-4.2 1.1-6.2 1.9-4.7 1.9-10.3 1.3-14.8 3.8 5.3-.1 10.6-.1 16-.2 1.8 0 3.6 0 5.4.1 2.2.3 4.5.8 6.5-.2z"/></g><path d="M757.9 79.7c-2.3-1-6.2-.6-6.2-.6.5-.8.1-4.1-2.5-4.6-3.5-.7-5.4 2-5.4 2 .6-.9 1.1-3.8-1-7.6s-9.9-3.6-12.7 0c-.7 1.3-1.1 2.8-1.1 4.5 0 .4 0 .8.1 1.2-1.7.3-3.3 1.2-4.9 1.9-4.7 1.9-10.3 1.3-14.8 3.8 5.3-.1 10.6-.1 16-.2 1.8 0 3.6 0 5.4.1 1 .1 2.1.3 3.2.3 1.5.6 3.2.9 5 .9v.1c3.6-.2 7.3 0 10.9 0 2.9 0 5.8-.2 8.7 0 1.9.1 3.8.1 5.8 0 1 0 2-.1 2.9-.1.2 0 .7 0 1.4-.1-1.4-.2-8.5-.6-10.8-1.6z" fill="#f4f4f4"/><path d="M1475 161.6l3.6-15.3c.2-1 1.2-1.8 2.2-1.8 1.1 0 2 .7 2.2 1.8l3.6 15.3H1475z" fill="#dbdbdb"/><path d="M1484.9 159.2h-8.1c-1 0-1.7.8-1.7 1.7v.6h11.6v-.5c-.1-1-.9-1.8-1.8-1.8z" fill="#dbdbdb"/><path d="M1480.8 155.9c-.7 0-1.3.6-1.3 1.3v2h2.5v-2c.1-.7-.5-1.3-1.2-1.3z" fill="#dbdbdb"/><path d="M1480.1 157.5c0-.7.6-1.3 1.3-1.3h.2c-.2-.2-.5-.3-.8-.3-.7 0-1.3.6-1.3 1.3v2h.6v-1.7zM1482.8 147.7h-4c-.3 0-.6-.3-.6-.6s.2-.6.6-.6h4.1c.3 0 .6.2.6.6-.1.3-.4.6-.7.6z" fill="#dbdbdb"/><g fill="#dbdbdb"><path d="M1479.1 151.9h-.7c-.3 0-.5-.2-.5-.5s.2-.5.5-.5h.7c.3 0 .5.2.5.5-.1.3-.3.5-.5.5zM1481.5 151.9h-.7c-.3 0-.5-.2-.5-.5s.2-.5.5-.5h.7c.3 0 .5.2.5.5-.1.3-.3.5-.5.5zM1480.3 154.9h-.7c-.3 0-.5-.2-.5-.5s.2-.5.5-.5h.7c.3 0 .5.2.5.5-.1.3-.3.5-.5.5zM1482.7 153.4h-.7c-.3 0-.5-.2-.5-.5s.2-.5.5-.5h.7c.3 0 .5.2.5.5-.1.3-.3.5-.5.5zM1480.3 150.4h-.7c-.3 0-.5-.2-.5-.5s.2-.5.5-.5h.7c.3 0 .5.2.5.5-.1.3-.3.5-.5.5zM1482.7 150.4h-.7c-.3 0-.5-.2-.5-.5s.2-.5.5-.5h.7c.3 0 .5.2.5.5-.1.3-.3.5-.5.5z"/></g><g fill="#dbdbdb"><path d="M1473.1 139.4c-.2.2-.2.4 0 .6l7.1 7.1c.2.2.4.2.6 0 .2-.2.2-.4 0-.6l-7.1-7.1c-.2-.2-.4-.2-.6 0z"/><path d="M1478 142.8l-.7.7-4.2-4.2.7-.7c.5-.5 1.2-.5 1.7 0l2.5 2.5c.5.5.5 1.2 0 1.7z"/><g><path d="M1488.5 154.7c.2-.2.2-.4 0-.6l-7.1-7.1c-.2-.2-.4-.2-.6 0-.2.2-.2.4 0 .6l7.1 7.1c.1.2.4.2.6 0z"/><path d="M1483.6 151.3l.7-.7 4.2 4.2-.7.7c-.5.5-1.2.5-1.7 0l-2.5-2.5c-.5-.5-.5-1.2 0-1.7z"/></g><g><path d="M1473.1 154.7c.2.2.4.2.6 0l7.1-7.1c.2-.2.2-.4 0-.6-.2-.2-.4-.2-.6 0l-7.1 7.1c-.2.2-.2.5 0 .6z"/><path d="M1476.5 149.8l.7.7-4.2 4.2-.7-.7c-.5-.5-.5-1.2 0-1.7l2.5-2.5c.5-.4 1.3-.4 1.7 0z"/><g><path d="M1488.5 139.4c-.2-.2-.4-.2-.6 0l-7.1 7.1c-.2.2-.2.4 0 .6.2.2.4.2.6 0l7.1-7.1c.1-.2.1-.5 0-.6z"/><path d="M1485.1 144.3l-.7-.7 4.2-4.2.7.7c.5.5.5 1.2 0 1.7l-2.5 2.5c-.5.4-1.3.4-1.7 0z"/></g></g></g><g fill="#dbdbdb"><circle cx="1480.8" cy="147.1" r="1.1"/><circle cx="1480.8" cy="147.1" r=".7"/></g><g><path d="M869.7 158.9l3.6-15.3c.2-1 1.2-1.8 2.2-1.8 1.1 0 2 .7 2.2 1.8l3.6 15.3h-11.6z" fill="#dbdbdb"/><path d="M879.6 156.5h-8.1c-1 0-1.7.8-1.7 1.7v.6h11.6v-.6c-.1-.9-.9-1.7-1.8-1.7z" fill="#dbdbdb"/><path d="M875.5 153.3c-.7 0-1.3.6-1.3 1.3v2h2.5v-2c0-.8-.5-1.3-1.2-1.3z" fill="#dbdbdb"/><path d="M874.8 154.8c0-.7.6-1.3 1.3-1.3h.2c-.2-.2-.5-.3-.8-.3-.7 0-1.3.6-1.3 1.3v2h.6v-1.7zM877.5 145h-4c-.3 0-.6-.3-.6-.6s.2-.6.6-.6h4.1c.3 0 .6.2.6.6-.1.3-.4.6-.7.6z" fill="#dbdbdb"/><g fill="#dbdbdb"><path d="M873.8 149.2h-.8c-.3 0-.5-.2-.5-.5s.2-.5.5-.5h.7c.3 0 .5.2.5.5s-.2.5-.4.5zM876.2 149.2h-.7c-.3 0-.5-.2-.5-.5s.2-.5.5-.5h.7c.3 0 .5.2.5.5-.1.3-.3.5-.5.5zM875 152.2h-.7c-.3 0-.5-.2-.5-.5s.2-.5.5-.5h.7c.3 0 .5.2.5.5-.1.3-.3.5-.5.5zM877.4 150.7h-.7c-.3 0-.5-.2-.5-.5s.2-.5.5-.5h.7c.3 0 .5.2.5.5-.1.3-.3.5-.5.5zM875 147.7h-.7c-.3 0-.5-.2-.5-.5s.2-.5.5-.5h.7c.3 0 .5.2.5.5-.1.3-.3.5-.5.5zM877.4 147.7h-.7c-.3 0-.5-.2-.5-.5s.2-.5.5-.5h.7c.3 0 .5.2.5.5-.1.3-.3.5-.5.5z"/></g><g fill="#dbdbdb"><path d="M867.8 136.7c-.2.2-.2.4 0 .6l7.1 7.1c.2.2.4.2.6 0 .2-.2.2-.4 0-.6l-7.1-7.1c-.2-.2-.4-.2-.6 0z"/><path d="M872.7 140.1l-.7.7-4.2-4.2.7-.7c.5-.5 1.2-.5 1.7 0l2.5 2.5c.5.5.5 1.2 0 1.7z"/><g><path d="M883.2 152.1c.2-.2.2-.4 0-.6l-7.1-7.1c-.2-.2-.4-.2-.6 0-.2.2-.2.4 0 .6l7.1 7.1c.1.1.4.1.6 0z"/><path d="M878.3 148.6l.7-.7 4.2 4.2-.7.7c-.5.5-1.2.5-1.7 0l-2.5-2.5c-.5-.5-.5-1.2 0-1.7z"/></g><g><path d="M867.8 152.1c.2.2.4.2.6 0l7.1-7.1c.2-.2.2-.4 0-.6-.2-.2-.4-.2-.6 0l-7.1 7.1c-.2.1-.2.4 0 .6z"/><path d="M871.2 147.2l.7.7-4.2 4.2-.7-.7c-.5-.5-.5-1.2 0-1.7l2.5-2.5c.5-.5 1.3-.5 1.7 0z"/><g><path d="M883.2 136.7c-.2-.2-.4-.2-.6 0l-7.1 7.1c-.2.2-.2.4 0 .6.2.2.4.2.6 0l7.1-7.1c.1-.2.1-.5 0-.6z"/><path d="M879.7 141.6l-.7-.7 4.2-4.2.7.7c.5.5.5 1.2 0 1.7l-2.5 2.5c-.4.4-1.2.4-1.7 0z"/></g></g></g><g fill="#dbdbdb"><circle cx="875.5" cy="144.4" r="1.1"/><circle cx="875.5" cy="144.4" r=".7"/></g></g><g><path d="M1003.8 169.7l5.4-23c.4-1.5 1.7-2.6 3.3-2.6 1.6 0 3 1.1 3.3 2.6l5.4 23h-17.4z" fill="#dbdbdb"/><path d="M1019.5 166.2h-13.9c-1 0-1.7.8-1.7 1.7v1.8h17.4v-1.8c-.1-1-.9-1.7-1.8-1.7zM1013.1 161.2h-1.3c-.7 0-1.3.6-1.3 1.3v3.7h3.8v-3.7c.1-.7-.5-1.3-1.2-1.3z" fill="#dbdbdb"/><path d="M1011.5 163.6c0-1 .8-1.9 1.9-1.9h.4c-.3-.3-.8-.5-1.3-.5-1 0-1.9.8-1.9 1.9v3.1h.9v-2.6zM1015.8 148.8h-6.6c-.3 0-.6-.3-.6-.6v-.6c0-.3.2-.6.6-.6h6.8c.3 0 .6.2.6.6v.6c-.2.3-.5.6-.8.6z" fill="#dbdbdb"/><g fill="#dbdbdb"><path d="M1010.1 155.1h-1.5c-.3 0-.5-.2-.5-.5v-.5c0-.3.2-.5.5-.5h1.5c.3 0 .5.2.5.5v.5c0 .3-.2.5-.5.5zM1013.7 155.1h-1.5c-.3 0-.5-.2-.5-.5v-.5c0-.3.2-.5.5-.5h1.5c.3 0 .5.2.5.5v.5c0 .3-.2.5-.5.5zM1011.9 159.6h-1.5c-.3 0-.5-.2-.5-.5v-.5c0-.3.2-.5.5-.5h1.5c.3 0 .5.2.5.5v.5c0 .3-.2.5-.5.5zM1015.5 157.4h-1.5c-.3 0-.5-.2-.5-.5v-.5c0-.3.2-.5.5-.5h1.5c.3 0 .5.2.5.5v.5c0 .3-.2.5-.5.5zM1011.9 152.9h-1.5c-.3 0-.5-.2-.5-.5v-.5c0-.3.2-.5.5-.5h1.5c.3 0 .5.2.5.5v.5c0 .3-.2.5-.5.5zM1015.5 152.9h-1.5c-.3 0-.5-.2-.5-.5v-.5c0-.3.2-.5.5-.5h1.5c.3 0 .5.2.5.5v.5c0 .3-.2.5-.5.5z"/></g><g fill="#dbdbdb"><path d="M1001.1 136.2l-.3.3c-.2.2-.2.4 0 .6l10.9 10.9c.2.2.4.2.6 0l.3-.3c.2-.2.2-.4 0-.6l-10.9-10.9c-.2-.1-.4-.1-.6 0z"/><path d="M1008.7 141.1l-1.5 1.5-6.2-6.2 1.5-1.5c.5-.5 1.2-.5 1.7 0l4.6 4.6c.4.4.4 1.1-.1 1.6z"/><g><path d="M1023.9 159.6l.3-.3c.2-.2.2-.4 0-.6l-10.9-10.9c-.2-.2-.4-.2-.6 0l-.3.3c-.2.2-.2.4 0 .6l10.9 10.9c.1.1.4.1.6 0z"/><path d="M1016.2 154.7l1.5-1.5 6.2 6.2-1.5 1.5c-.5.5-1.2.5-1.7 0l-4.6-4.6c-.3-.4-.3-1.1.1-1.6z"/></g><g><path d="M1000.8 159.3l.3.3c.2.2.4.2.6 0l10.9-10.9c.2-.2.2-.4 0-.6l-.3-.3c-.2-.2-.4-.2-.6 0l-10.9 10.9c-.2.1-.2.4 0 .6z"/><path d="M1005.7 151.7l1.5 1.5-6.2 6.2-1.5-1.5c-.5-.5-.5-1.2 0-1.7l4.6-4.6c.4-.4 1.1-.4 1.6.1z"/><g><path d="M1024.2 136.5l-.3-.3c-.2-.2-.4-.2-.6 0l-10.9 10.9c-.2.2-.2.4 0 .6l.3.3c.2.2.4.2.6 0l10.9-10.9c.1-.1.1-.4 0-.6z"/><path d="M1019.3 144.1l-1.5-1.5 6.2-6.2 1.5 1.5c.5.5.5 1.2 0 1.7l-4.6 4.6c-.4.4-1.1.4-1.6-.1z"/></g></g></g><g fill="#dbdbdb"><circle cx="1012.5" cy="147.9" r="1.6"/><circle cx="1012.5" cy="147.9" r="1"/></g></g><path d="M1067.3 199.7c45.7-14.7 100.7-40.3 121-40.3 13.8 0 18.5 4.7 28.7 4.7 17.3 0 53-30.3 80.7-30.3 26.3 0 103.3 50.2 195 65.7l-425.4.2z" fill="#dbdbdb"/><g><path d="M900 199.7c233.3-6.3 370-42 505.9-42 191.3 0 347.7 26.2 518.4 42H900z" fill="#8c6a62"/><g opacity=".3" fill="#af8f8b"><path d="M1208.9 173.9c-25.9 7.9-63.6 19.6-73.7 25.7h44.3c20.1-9.7 52.9-23.1 83.1-32.1-17.3 2-35.2 4.2-53.7 6.4zM1302.6 163.3c-23.6 8.9-53.7 22.3-83.4 36.4h45.8c24.1-12.5 55.5-28.8 84.8-40.2-15.5 1-31.2 2.3-47.2 3.8zM1434.7 157.9c-9.5-.1-19.1-.2-28.8-.2-3.2 0-6.3 0-9.5.1l-.2.2c-24.8 8.7-56.7 25.7-82 41.7h53.6c.2-.2.5-.4.7-.6 14.1-11.6 46.9-32.2 66.2-41.2zM1523.4 160.9c-14.3-.8-28.8-1.4-43.4-1.9-22.4 10.8-44.6 25.4-63.8 40.7h43.6c.2-.2.5-.4.7-.6 12.7-10.5 42.7-28.2 62.9-38.2z"/></g></g><g><path d="M400 199.7c178.3-11 312-42 464-42 195.2 0 270.5 34.9 442 42H400z" fill="#7a5247"/><g opacity=".3" fill="#9b7067"><path d="M1107.2 199.7h54.3c-13.1-8-32.1-15.2-52.4-21.4-32.4-4.9-64.9-9.7-101.2-13.4 33.5 8.7 76.2 23.7 99.3 34.8zM788.5 160.1c-12.5.8-24.9 1.7-37.3 2.7 18.8 8.9 46.8 25.7 60.5 36.9h52.8c-.3-.2-.5-.5-.8-.7-21.6-18.3-50.4-30.8-75.2-38.9zM862.1 157.7c-13.7 0-27.2.3-40.6.8.4.2.9.4 1.4.6 18.4 7.7 58.2 27.6 73.3 40.1.2.2.5.4.7.6h58.6c-25.5-16.2-65.5-34-92.8-42-.2-.1-.4-.1-.6-.1z"/></g><defs><path id="e" d="M400 199.7c178.3-11 312-42 464-42 195.2 0 270.5 34.9 442 42H400z"/></defs><clipPath id="f"><use xlink:href="#e" overflow="visible"/></clipPath><g clip-path="url(#f)"><path d="M992.8 198.7c-25.8-17-61.6-32.1-96.4-40.8 5.7-1.4 11.8-2.1 17.6-2.1 8.5 0 16.3 1.6 22.6 4.6h.2c22.6 5 81.4 17.9 125.4 38.3h-69.4z" fill="#bfbfbf"/><path d="M914 156.7c8.4 0 16 1.5 22.2 4.5l.2.1h.2c21.8 4.8 77.6 17.1 121 36.3h-64.5c-24.8-16.3-58.8-30.9-92.3-39.7 4.3-.7 8.8-1.2 13.2-1.2m0-2c-7.6 0-15.1 1.2-21.6 3.2 39.7 9.4 76.1 25.9 100.1 41.8h74.1c-42.3-20.5-99.1-33.5-129.6-40.3-6.9-3.3-15-4.7-23-4.7z" fill="#cecece"/></g><g fill="none" stroke="#dbdbdb" stroke-width="2" stroke-linecap="round" stroke-linejoin="round" clip-path="url(#f)"><path d="M917.7 159.6c.6.1 1.3.3 2 .4"/><path d="M925.4 161.4c25 6.5 71.9 23.4 99.6 35.1" stroke-dasharray="3.9492,5.9239"/><path d="M1027.7 197.7c.6.3 1.2.5 1.8.8"/></g></g><g><path d="M1592.3 161.5l15-63.9c1-4.3 4.8-7.3 9.2-7.3 4.4 0 8.2 3 9.2 7.3l15 63.9h-48.4z" fill="#e24217"/><path d="M1638.5 151.7h-44c-1.2 0-2.2 1-2.2 2.2v7.6h48.3v-7.6c0-1.2-.9-2.2-2.1-2.2z" fill="#f2582f"/><path d="M1617.5 138.1h-2.1c-2.3 0-4.2 1.9-4.2 4.2v9.6h10.5v-9.6c0-2.4-1.9-4.2-4.2-4.2z" fill="#c92b00"/><path d="M1613.7 144.5c0-2.9 2.3-5.2 5.2-5.2.3 0 .7 0 1 .1-.9-.8-2.1-1.3-3.5-1.3-2.9 0-5.2 2.3-5.2 5.2v8.5h2.5v-7.3z" fill="#ad3020"/><path d="M1625.3 103.5h-17.7c-1.2 0-2.1-.9-2.1-2.1v-1c0-1 .8-1.9 1.9-1.9h18.2c1 0 1.9.8 1.9 1.9v1c-.1 1.1-1.1 2.1-2.2 2.1z" fill="#f2582f"/><g fill="#c92b00"><path d="M1610.3 121.1h-5.1c-.5 0-1-.4-1-1V118c0-.5.4-1 1-1h5.1c.5 0 1 .4 1 1v2.1c0 .6-.5 1-1 1zM1620.3 121.1h-5.1c-.5 0-1-.4-1-1V118c0-.5.4-1 1-1h5.1c.5 0 1 .4 1 1v2.1c0 .6-.5 1-1 1zM1615.3 133.6h-5.1c-.5 0-1-.4-1-1v-2.1c0-.5.4-1 1-1h5.1c.5 0 1 .4 1 1v2.1c0 .6-.5 1-1 1zM1625.3 127.3h-5.1c-.5 0-1-.4-1-1v-2.1c0-.5.4-1 1-1h5.1c.5 0 1 .4 1 1v2.1c0 .6-.5 1-1 1zM1615.3 114.8h-5.1c-.5 0-1-.4-1-1v-2.1c0-.5.4-1 1-1h5.1c.5 0 1 .4 1 1v2.1c0 .6-.5 1-1 1zM1625.3 114.8h-5.1c-.5 0-1-.4-1-1v-2.1c0-.5.4-1 1-1h5.1c.5 0 1 .4 1 1v2.1c0 .6-.5 1-1 1z"/></g><g fill="#fcd001"><path d="M1584.7 68.7l-.5.5c-.6.6-.6 1.5 0 2l30 30c.6.6 1.5.6 2 0l.5-.5c.6-.6.6-1.5 0-2l-30-30c-.6-.5-1.5-.5-2 0z"/><path d="M1607.3 80.8l-5.5 5.5-17.4-17.3 5.5-5.5c.6-.6 1.5-.6 2.1 0l15.2 15.2c.7.6.7 1.5.1 2.1z"/><g><path d="M1648.2 133.3l.5-.5c.6-.6.6-1.5 0-2l-30-30c-.6-.6-1.5-.6-2 0l-.5.5c-.6.6-.6 1.5 0 2l30 30c.6.5 1.5.5 2 0z"/><path d="M1625.6 121.2l5.5-5.5 17.3 17.3-5.5 5.5c-.6.6-1.5.6-2.1 0l-15.2-15.2c-.6-.6-.6-1.5 0-2.1z"/></g><g><path d="M1584.2 132.8l.5.5c.6.6 1.5.6 2 0l30-30c.6-.6.6-1.5 0-2l-.5-.5c-.6-.6-1.5-.6-2 0l-30 30c-.6.6-.6 1.5 0 2z"/><path d="M1596.2 110.2l5.5 5.5-17.3 17.3-5.5-5.5c-.6-.6-.6-1.5 0-2.1l15.2-15.2c.6-.6 1.6-.6 2.1 0z"/><g><path d="M1648.7 69.2l-.5-.5c-.6-.6-1.5-.6-2 0l-30 30c-.6.6-.6 1.5 0 2l.5.5c.6.6 1.5.6 2 0l30-30c.6-.5.6-1.4 0-2z"/><path d="M1636.7 91.8l-5.5-5.5 17.3-17.3 5.5 5.5c.6.6.6 1.5 0 2.1l-15.2 15.2c-.6.6-1.6.6-2.1 0z"/></g></g></g><circle cx="1616.4" cy="101" r="4.6" fill="#FFF"/><circle cx="1616.4" cy="101" r="2.8" fill="#2eaaef"/></g><g><path d="M1713.3 159.7l11.2-48c.8-3.2 3.6-5.5 6.9-5.5 3.3 0 6.2 2.3 6.9 5.5l11.2 48h-36.2z" fill="#e24217"/><path d="M1747.4 152.4h-31.9c-1.2 0-2.2 1-2.2 2.2v5.2h36.2v-5.2c.1-1.2-.9-2.2-2.1-2.2z" fill="#f2582f"/><path d="M1732.3 142.1h-1.6c-1.7 0-3.1 1.4-3.1 3.1v7.2h7.9v-7.2c-.1-1.7-1.5-3.1-3.2-3.1z" fill="#c92b00"/><path d="M1729.4 147c0-2.2 1.8-3.9 3.9-3.9.3 0 .5 0 .7.1-.7-.6-1.6-1-2.6-1-2.2 0-3.9 1.8-3.9 3.9v6.4h1.9V147z" fill="#ad3020"/><path d="M1738.1 116.2h-13.3c-.9 0-1.6-.7-1.6-1.6v-.7c0-.8.6-1.4 1.4-1.4h13.6c.8 0 1.4.6 1.4 1.4v.7c.1.9-.7 1.6-1.5 1.6z" fill="#f2582f"/><g fill="#c92b00"><path d="M1726.6 129.4h-3.3c-.5 0-1-.4-1-1v-1.1c0-.5.4-1 1-1h3.3c.5 0 1 .4 1 1v1.1c0 .6-.5 1-1 1zM1734.1 129.4h-3.3c-.5 0-1-.4-1-1v-1.1c0-.5.4-1 1-1h3.3c.5 0 1 .4 1 1v1.1c0 .6-.5 1-1 1zM1730.4 138.8h-3.3c-.5 0-1-.4-1-1v-1.1c0-.5.4-1 1-1h3.3c.5 0 1 .4 1 1v1.1c-.1.5-.5 1-1 1zM1737.9 134.1h-3.3c-.5 0-1-.4-1-1V132c0-.5.4-1 1-1h3.3c.5 0 1 .4 1 1v1.1c-.1.6-.5 1-1 1zM1730.4 124.7h-3.3c-.5 0-1-.4-1-1v-1.1c0-.5.4-1 1-1h3.3c.5 0 1 .4 1 1v1.1c-.1.6-.5 1-1 1zM1737.9 124.7h-3.3c-.5 0-1-.4-1-1v-1.1c0-.5.4-1 1-1h3.3c.5 0 1 .4 1 1v1.1c-.1.6-.5 1-1 1z"/></g><g fill="#fcd001"><path d="M1707.6 90.1l-.4.4c-.4.4-.4 1.1 0 1.5l22.5 22.5c.4.4 1.1.4 1.5 0l.4-.4c.4-.4.4-1.1 0-1.5l-22.5-22.5c-.4-.4-1.1-.4-1.5 0z"/><path d="M1724.3 99.5l-3.9 3.9-13-13 3.9-3.9c.6-.6 1.5-.6 2.1 0l10.9 10.9c.6.5.6 1.5 0 2.1z"/><g><path d="M1755.3 138.6l.4-.4c.4-.4.4-1.1 0-1.5l-22.5-22.5c-.4-.4-1.1-.4-1.5 0l-.4.4c-.4.4-.4 1.1 0 1.5l22.5 22.5c.4.4 1.1.4 1.5 0z"/><path d="M1738.6 129.2l3.9-3.9 13 13-3.9 3.9c-.6.6-1.5.6-2.1 0l-10.9-10.9c-.6-.5-.6-1.5 0-2.1z"/></g><g><path d="M1707.2 138.2l.4.4c.4.4 1.1.4 1.5 0l22.5-22.5c.4-.4.4-1.1 0-1.5l-.4-.4c-.4-.4-1.1-.4-1.5 0l-22.5 22.5c-.4.4-.4 1.1 0 1.5z"/><path d="M1716.6 121.5l3.9 3.9-13 13-3.9-3.9c-.6-.6-.6-1.5 0-2.1l10.9-10.9c.5-.6 1.5-.6 2.1 0z"/><g><path d="M1755.7 90.5l-.4-.4c-.4-.4-1.1-.4-1.5 0l-22.5 22.5c-.4.4-.4 1.1 0 1.5l.4.4c.4.4 1.1.4 1.5 0l22.5-22.5c.4-.4.4-1.1 0-1.5z"/><path d="M1746.3 107.2l-3.9-3.9 13-13 3.9 3.9c.6.6.6 1.5 0 2.1l-10.9 10.9c-.5.6-1.5.6-2.1 0z"/></g></g></g><circle cx="1731.4" cy="114.3" r="3.4" fill="#FFF"/><circle cx="1731.4" cy="114.3" r="2.1" fill="#2eaaef"/></g><path d="M1061 199.7c228-11 454-43 629-43 196 0 482 39 572 43H1061z" fill="#f78d1f"/><path d="M0 199.7c151.6-21 376.6-42 496.6-42 218.4 0 485 35 711 42.3L0 199.7zM1568.5 199.7c106.5-10 319.9-31.7 407.9-31.7 81.7 0 221.2 15.8 303.7 31.7h-711.6z" fill="#fcd001"/><path d="M617 182.7c-35.9 8-104.7 15-135 17.1l202.5.1c43-7.7 51.5-19.7 36.5-25.2-23.4-8.6-60.5-11.8-87-13.2-23.4-1.2-46.6-2.1-69.3-2.7 42 5.9 89.6 15.5 52.3 23.9z" opacity=".8" fill="#ffed94"/><path d="M1573.2 160.4c-78.9 8.9-148.3 27.8-182.9 38.9l-76.1.3s124.2-30.3 191.6-34.8l67.4-4.4z" opacity=".6" fill="#f7c232"/><g><path fill="#ea711f" d="M1691.6 163.1l-28.2 2.8 17.2 1.3 26.3-2.9z"/><path fill="#ea711f" d="M1692.6 163.6l-23.8 2.1-39.7 10.5 33 .7 30.9-9.4z"/><path fill="#ea711f" d="M1692.3 163.6l.7 3.9 13 .6.5-3.7z"/><path fill="#ea711f" d="M1693 167.5l13 .6-24.5 8-19.4.8zM1669.1 169.1c-.4.1-1.1.2-1.6.2l-2.3-.1c-.4 0-.5-.1 0-.3l4.5-1.2c.4-.1 1.1-.2 1.6-.2l2 .1c.4 0 .5.2 0 .3l-4.2 1.2z"/><path d="M1693.6 170.6c-.4.1-.4.3 0 .3h.4c.4 0 1.1-.1 1.6-.2l2.8-.9c.4-.1.4-.3 0-.3h-.3c-.4 0-1.1.1-1.6.2l-2.9.9zM1685.3 173.3c-.4.1-.4.2 0 .2h.6c.4 0 1.1-.1 1.6-.2l3.2-1c.4-.1.4-.2 0-.3h-.5c-.4 0-1.1.1-1.6.2l-3.3 1.1zM1688.3 170.5c-.4.1-.4.2 0 .3h.5c.4 0 1.1-.1 1.6-.2l3.1-1c.4-.1.4-.3 0-.3h-.4c-.4 0-1.1.1-1.6.2l-3.2 1zM1679.6 173.2c-.4.1-.4.2 0 .2h.7c.4 0 1.1-.1 1.6-.2l3.5-1.1c.4-.1.4-.2 0-.2h-.6c-.4 0-1.1.1-1.6.2l-3.6 1.1zM1658.6 172.1c-.4.1-1.1.2-1.6.2l-2.8-.1c-.4 0-.5-.1 0-.2l5.1-1.4c.4-.1 1.1-.2 1.6-.2l2.6.1c.4 0 .5.1 0 .2l-4.9 1.4zM1678.3 169.7c-.4.1-1.1.2-1.6.2l-1.8-.1c-.4 0-.5-.1 0-.3l4-1.1c.4-.1 1.1-.2 1.6-.2l1.6.1c.4 0 .5.2 0 .3l-3.8 1.1zM1668.8 172.5c-.4.1-1.1.2-1.6.2l-2.3-.1c-.4 0-.5-.1 0-.2l4.4-1.3c.4-.1 1.1-.2 1.6-.2l2.1.1c.4 0 .5.1 0 .3l-4.2 1.2zM1691.6 163.1l-.1 4.8 15.8.6-.4-4.2z" fill="#ea711f"/><defs><path id="g" d="M1692.6 163.6l-23.8 2.1-40.3 10.6 33.2.7 31.3-9.5z"/></defs><use xlink:href="#g" overflow="visible" fill="#ea711f"/><clipPath id="h"><use xlink:href="#g" overflow="visible"/></clipPath><g clip-path="url(#h)" fill="#ea711f"><path d="M1658.6 173.3h-.5c-1.6-.1-4 .2-5.4.6l-9.4 2.6 6.7.1 8.9-2.6c1.4-.3 1.3-.7-.3-.7z"/><path d="M1657.5 173.7h.5c.7 0 1.1.1 1.2.2 1-.3.8-.7-.6-.7h-.5c-1.6-.1-4 .2-5.4.6l-9.4 2.6h1l7.8-2.2c1.4-.3 3.8-.5 5.4-.5z"/></g><g><path fill="#ea711f" d="M1689.7 168.2l-.1-4.6-26.2 2.3-.3-.4 28.6-2.4v4.8z"/></g><path fill="#ea711f" d="M1689.7 168.2l16.7.6.9-.3-15.6-.6z"/></g><g><path fill="#c92b00" d="M1640.2 127.7l-17.5 16.2 21.3.6 21.1-17.7z"/><path fill="#f4f4f4" d="M1643.5 129.1l-16.8 13v35.2l33.5 1.9v-36.3z"/><path fill="#664820" d="M1643.1 129.1l17.1 13.8 21.2-1.2-16.7-14.6z"/><path fill="#bfbfbf" d="M1660.2 142.9l21.2-1.2v34.4l-21.2 3.1z"/><path d="M1639.3 153.1c0 .4-.4.8-.8.8l-3-.1c-.4 0-.8-.4-.8-.8v-4.7c0-.4.4-.8.8-.8l3 .1c.4 0 .8.4.8.8v4.7z" fill="#61bef2"/><path d="M1674.6 154.6c0 .4.4.8.8.8l1.4-.1c.4 0 .8-.4.8-.8v-4.7c0-.4-.4-.8-.8-.8l-1.4.1c-.4 0-.8.4-.8.8v4.7zM1674.6 165.5c0 .4.4.8.8.8l1.4-.1c.4 0 .8-.4.8-.8v-4.7c0-.4-.4-.8-.8-.8l-1.4.1c-.4 0-.8.4-.8.8v4.7zM1666.8 154.8c0 .4.4.8.8.8l1.4-.1c.4 0 .8-.4.8-.8V150c0-.4-.4-.8-.8-.8l-1.4.1c-.4 0-.8.4-.8.8v4.7zM1666.8 165.7c0 .4.4.8.8.8l1.4-.1c.4 0 .8-.4.8-.8v-4.7c0-.4-.4-.8-.8-.8l-1.4.1c-.4 0-.8.4-.8.8v4.7z" fill="#127fd2"/><path d="M1639.3 163.6c0 .4-.4.8-.8.8h-3c-.4 0-.8-.4-.8-.8v-4.7c0-.4.4-.8.8-.8h3c.4 0 .8.4.8.8v4.7zM1651.4 153.7c0 .4-.4.8-.8.8l-3-.1c-.4 0-.8-.4-.8-.8v-4.7c0-.4.4-.8.8-.8l3 .1c.4 0 .8.4.8.8v4.7zM1651.4 164.2c0 .4-.4.8-.8.8h-3c-.4 0-.8-.4-.8-.8v-4.7c0-.4.4-.8.8-.8h3c.4 0 .8.4.8.8v4.7z" fill="#61bef2"/><path fill="#e24217" d="M1640.2 127.7l19.6 16.8 25.7-1.5-20.4-16.2z"/><defs><path id="i" d="M1643.5 129.1l-16.8 13v35.6l33.5 1.9v-36.7z"/></defs><clipPath id="j"><use xlink:href="#i" overflow="visible"/></clipPath><g clip-path="url(#j)"><path d="M1643.5 167.5h-.6c-1.7-.1-3.1.9-3.1 2.2v8.4l6.9.4V170c-.1-1.4-1.5-2.5-3.2-2.5z" fill="#e24217"/><path d="M1643.9 168.9h.6c.8 0 1.6.3 2.1.7-.2-1.2-1.5-2.1-3.1-2.2h-.6c-1.7-.1-3.1.9-3.1 2.2v8.4l1 .1v-6.9c-.1-1.4 1.3-2.4 3.1-2.3z" fill="#c92b00"/></g><g><path fill="#f2582f" d="M1658.7 146l-18.5-15.8-17.5 13.7-1.7-1.2 19.3-15.1 19.7 16.8z"/></g><path fill="#c92b00" d="M1658.7 146l26.8-1.5V143l-25.5 1.4z"/></g><g fill="none" stroke="#661d0e" stroke-width="2" stroke-linecap="round" stroke-linejoin="round" stroke-miterlimit="10"><path d="M1672 180.2l25.1-4M1675 176.9v6M1679.8 176.1v6M1684.5 175.3v6M1689.2 174.5v6M1694 173.7v6"/></g><g><ellipse cx="932.7" cy="162" rx="10.8" ry="1.8" fill="#898989"/><circle cx="938.3" cy="161.1" r="1.7" fill="#661d0e"/><circle cx="931.1" cy="161.1" r="1.7" fill="#661d0e"/><circle cx="924.7" cy="159.8" r="1.4" fill="#661d0e"/><path d="M941.1 161.6h-12v-14.5h12c.7 0 1.3.6 1.3 1.3v11.9c0 .7-.6 1.3-1.3 1.3z" fill="#c92b00"/><path d="M929.1 147.1l-6.2 1.4c-.6.1-1 .7-1 1.2v8.3c0 .5.3 1 .8 1.2l6.3 2.3v-14.4z" fill="#e24217"/><path d="M940.3 154.9h-9.2v-4.5c0-.7.6-1.3 1.3-1.3h6.7c.7 0 1.3.6 1.3 1.3v4.5z" fill="#61bef2"/><path d="M939.9 149.5l-8.8 5.4h9.2v-4.5c0-.4-.1-.7-.4-.9z" fill="#2eaaef"/><path d="M927.5 153.6v-3.1c0-.5-.5-.9-1-.8l-3 .5c-.4.1-.6.4-.6.7v2.6c0 .4.3.7.6.7l3 .3c.6 0 1-.4 1-.9z" fill="#bce8f7"/><path d="M927.1 149.7l-4 4.1c.1.1.3.2.5.3l3 .3c.5.1.9-.3.9-.8v-3.1c0-.4-.1-.6-.4-.8z" fill="#61bef2"/><path fill="#e24217" d="M924.5 149.7h.7v6.3h-.7z"/><path d="M938.1 159.5h-4.9c-.4 0-.8-.4-.8-.8s.4-.8.8-.8h4.9c.4 0 .8.4.8.8.1.5-.3.8-.8.8z" fill="#bfbfbf"/></g><ellipse cx="645.5" cy="181.8" rx="14.4" ry="3" fill="#f7c216"/><ellipse cx="690.5" cy="187.8" rx="14.4" ry="3" fill="#f7c216"/><g><ellipse cx="509.7" cy="169.3" rx="8.3" ry="1.7" fill="#f7c216"/><ellipse cx="530.7" cy="164.4" rx="8.3" ry="1.7" fill="#f7c216"/><ellipse cx="554.6" cy="171.4" rx="8.3" ry="1.7" fill="#f7c216"/><g fill="#f78d1f"><path d="M529.8 148.9c-.1-.5-.7-.8-1.2-.7-.5.1-.8.7-.7 1.2 1 3.4 2 10.8 1.8 13.8 0 .5.4 1 .9 1h.1c.5 0 .9-.4 1-.9.2-3.2-.8-10.8-1.9-14.4zM527.8 147.4c.7-1.2-2.7-3.4-3.2-1.7s2.4 3.1 3.2 1.7zM524.7 155.9c-.7-.2-1.7-.9-1.4-1.8.1-.4.5-.8 1-.9.6-.2 1.3-.3 1.9-.3.6.1 1.2.3 1.5.8 1.2 1.8-1.3 2.6-3 2.2zM525.7 151.4c-1.1.3-2.8-.3-2.8-1.5 0-.6.8-.9 1.3-1 1-.1 2.8.3 2.3 1.7-.1.5-.4.7-.8.8zM528.1 158.8c.2.3.3.7.2 1.1-.1.7-.6 1.3-1.3 1.5-1.3.5-2.8-.2-3.8-1.1-.4-.4-.7-.9-.7-1.5.2-2 4.5-1.7 5.6 0zM529.9 147.7c-.5-.3-.6-1.2-.5-1.8.1-.6.7-1.2 1.4-1.1 1.4.2 1.1 2.4.1 2.9-.4.1-.8.1-1 0zM531.4 149.1c.1-.1.1-.3.2-.4.6-.8 2-.8 2.5.1 1.2 2.1-3.7 2.5-2.7.3zM532.2 153.5c.3-1.3 3.4-2.5 3.9-.7s-2.4 2.5-3.5 1.5c-.3-.2-.4-.5-.4-.8zM536.9 159.3c-1.1 1.2-3.5 1.6-4.4 0-.9-1.7 1.3-3.1 2.9-3.1 1.7 0 2.6 1.6 1.7 2.9-.1 0-.1.1-.2.2z"/></g><g fill="#ffdf5a"><path d="M553.8 152.4c-.2-.6-.9-1-1.5-.8-.6.2-1 .9-.8 1.5 1.2 4.2 2.5 13.5 2.2 17.2-.1.7.4 1.3 1.1 1.3h.1c.6 0 1.2-.5 1.2-1.1.3-4.1-1.1-13.6-2.3-18.1zM551.2 150.5c.9-1.5-3.3-4.3-4-2.2-.7 2.2 3 3.9 4 2.2zM547.4 161.1c-.9-.2-2.1-1.1-1.7-2.2.2-.5.7-.9 1.2-1.2.7-.3 1.7-.4 2.4-.3.7.1 1.5.4 1.9 1 1.4 2.2-1.7 3.3-3.8 2.7zM548.5 155.6c-1.4.4-3.5-.4-3.4-1.9.1-.7 1-1.1 1.7-1.2 1.3-.2 3.6.4 2.9 2.1-.2.5-.6.8-1.2 1zM551.6 164.7c.3.4.4.8.3 1.3-.1.8-.8 1.6-1.6 1.9-1.6.6-3.6-.2-4.7-1.4-.5-.5-.9-1.2-.9-1.9.2-2.4 5.5-2 6.9.1zM553.9 150.9c-.6-.4-.8-1.5-.6-2.3.2-.8.9-1.5 1.7-1.4 1.7.2 1.4 3 .2 3.6-.6.2-1 .2-1.3.1zM555.7 152.6c.1-.2.2-.3.3-.5.7-1 2.5-1 3.1.1 1.5 2.7-4.6 3.1-3.4.4zM556.8 158.1c.4-1.6 4.2-3.1 4.8-.8.6 2.2-3 3.1-4.4 1.9-.4-.3-.5-.7-.4-1.1zM562.6 165.3c-1.4 1.5-4.4 2-5.6 0-1.2-2.1 1.6-3.8 3.6-3.9 2.1 0 3.3 2 2.1 3.6.1.1 0 .2-.1.3z"/></g><g fill="#ffdf5a"><path d="M509.1 150.6c-.2-.6-.9-1-1.5-.8-.6.2-1 .9-.8 1.5 1.2 4.2 2.5 13.5 2.2 17.2-.1.7.4 1.3 1.1 1.3h.1c.6 0 1.2-.5 1.2-1.1.4-4.1-1-13.7-2.3-18.1zM506.6 148.7c.9-1.5-3.3-4.3-4-2.2s3 3.9 4 2.2zM502.7 159.3c-.9-.2-2.1-1.1-1.7-2.2.2-.5.7-.9 1.2-1.2.7-.3 1.7-.4 2.4-.3.7.1 1.5.4 1.9 1 1.5 2.2-1.6 3.2-3.8 2.7zM503.9 153.7c-1.4.4-3.5-.4-3.4-1.9.1-.7 1-1.1 1.7-1.2 1.3-.2 3.6.4 2.9 2.1-.2.5-.7.9-1.2 1zM506.9 162.9c.3.4.4.8.3 1.3-.1.8-.8 1.6-1.6 1.9-1.6.6-3.6-.2-4.7-1.4-.5-.5-.9-1.2-.9-1.9.2-2.4 5.5-2 6.9.1zM509.2 149c-.6-.4-.8-1.5-.6-2.3.2-.8.9-1.5 1.7-1.4 1.7.2 1.4 3 .2 3.6-.6.3-1 .3-1.3.1zM511.1 150.8c.1-.2.2-.3.3-.5.7-1 2.5-1 3.1.1 1.4 2.7-4.6 3.1-3.4.4zM512.1 156.3c.4-1.6 4.2-3.1 4.8-.8.6 2.2-3 3.1-4.4 1.9-.3-.3-.5-.7-.4-1.1zM518 163.5c-1.4 1.5-4.4 2-5.6 0-1.2-2.1 1.6-3.8 3.6-3.9 2.1 0 3.3 2 2.1 3.6 0 .1 0 .2-.1.3z"/></g><g><ellipse cx="468.8" cy="181.4" rx="9.6" ry="2" fill="#f7c216"/><ellipse cx="492.4" cy="176.4" rx="9.6" ry="2" fill="#f7c216"/><ellipse cx="508.2" cy="183.8" rx="9.6" ry="2" fill="#f7c216"/><g fill="#ea711f"><path d="M491 159c-.2-.6-.8-.9-1.4-.8-.6.2-.9.8-.8 1.4 1.1 3.9 2.3 12.4 2.1 15.8 0 .6.4 1.2 1 1.2h.1c.6 0 1.1-.4 1.1-1 .4-3.7-.9-12.5-2.1-16.6zM488.7 157.2c.9-1.4-3.1-3.9-3.7-2-.6 2 2.8 3.6 3.7 2zM485.1 167c-.9-.2-1.9-1-1.6-2 .2-.5.6-.9 1.1-1.1.7-.3 1.5-.4 2.2-.3.7.1 1.4.4 1.7 1 1.5 2-1.4 2.9-3.4 2.4zM486.2 161.9c-1.3.4-3.3-.4-3.2-1.8 0-.7 1-1 1.5-1.1 1.2-.2 3.3.3 2.7 2-.1.4-.5.7-1 .9zM489 170.3c.2.4.4.8.3 1.2-.1.8-.7 1.4-1.5 1.7-1.5.6-3.3-.2-4.3-1.3-.5-.5-.8-1.1-.8-1.7.1-2.2 5-1.8 6.3.1zM491.1 157.5c-.6-.3-.7-1.4-.6-2.1.1-.7.8-1.4 1.6-1.3 1.6.2 1.3 2.8.2 3.4-.5.2-.9.2-1.2 0zM492.8 159.2c.1-.1.2-.3.3-.5.6-.9 2.3-.9 2.9.1 1.3 2.5-4.3 2.9-3.2.4zM493.8 164.2c.4-1.5 3.9-2.9 4.4-.8.5 2.1-2.7 2.9-4 1.8-.4-.2-.5-.6-.4-1zM499.2 170.9c-1.3 1.4-4.1 1.9-5.1 0-1.1-1.9 1.5-3.5 3.3-3.6 2 0 3 1.8 2 3.3-.1.1-.1.2-.2.3z"/></g><g fill="#f78d1f"><path d="M507.1 162.4c-.2-.7-1-1.2-1.7-1-.7.2-1.2 1-1 1.7 1.4 4.8 2.9 15.5 2.6 19.8-.1.8.5 1.4 1.3 1.5h.1c.7 0 1.3-.6 1.4-1.3.3-4.6-1.2-15.6-2.7-20.7zM504.2 160.2c1.1-1.8-3.8-4.9-4.6-2.5-.8 2.4 3.4 4.5 4.6 2.5zM499.7 172.4c-1.1-.3-2.4-1.2-2-2.5.2-.6.8-1.1 1.4-1.3.8-.3 1.9-.5 2.8-.4.8.1 1.7.5 2.2 1.2 1.6 2.5-1.9 3.7-4.4 3zM501.1 166c-1.6.5-4.1-.4-4-2.2.1-.8 1.2-1.3 1.9-1.4 1.4-.2 4.1.4 3.4 2.4-.3.6-.7 1-1.3 1.2zM504.5 176.6c.3.5.4 1 .4 1.6-.2 1-.9 1.8-1.8 2.2-1.8.7-4.1-.2-5.4-1.6-.6-.6-1.1-1.3-1-2.2.1-2.9 6.2-2.4 7.8 0zM507.2 160.6c-.7-.4-.9-1.7-.7-2.6.2-.9 1-1.8 1.9-1.7 1.9.3 1.6 3.5.2 4.2-.6.3-1.1.3-1.4.1zM509.3 162.6l.3-.6c.8-1.2 2.9-1.2 3.6.1 1.7 3.2-5.3 3.7-3.9.5zM510.5 169c.4-1.8 4.9-3.6 5.6-.9.7 2.6-3.4 3.6-5.1 2.2-.4-.4-.6-.9-.5-1.3zM517.3 177.3c-1.6 1.8-5.1 2.4-6.4 0-1.3-2.4 1.8-4.4 4.2-4.4 2.5 0 3.8 2.3 2.5 4.1l-.3.3z"/></g><g fill="#f78d1f"><path d="M467.2 160.3c-.2-.7-1-1.2-1.7-1-.7.2-1.2 1-1 1.7 1.4 4.8 2.9 15.5 2.6 19.8-.1.8.5 1.4 1.3 1.5h.1c.7 0 1.3-.6 1.4-1.3.3-4.6-1.3-15.6-2.7-20.7zM464.2 158.1c1.1-1.8-3.8-4.9-4.6-2.5-.7 2.4 3.5 4.5 4.6 2.5zM459.8 170.3c-1.1-.3-2.4-1.2-2-2.5.2-.6.8-1.1 1.4-1.3.8-.3 1.9-.5 2.8-.4.8.1 1.7.5 2.2 1.2 1.6 2.5-1.9 3.7-4.4 3zM461.1 163.9c-1.6.5-4.1-.4-4-2.2.1-.8 1.2-1.3 1.9-1.4 1.4-.2 4.1.4 3.4 2.4-.2.6-.7 1-1.3 1.2zM464.6 174.5c.3.5.4 1 .4 1.6-.2 1-.9 1.8-1.8 2.2-1.8.7-4.1-.2-5.4-1.6-.6-.6-1.1-1.3-1-2.2.1-2.9 6.2-2.4 7.8 0zM467.3 158.5c-.7-.4-.9-1.7-.7-2.6.2-.9 1-1.8 1.9-1.7 1.9.3 1.6 3.5.2 4.2-.6.3-1.1.3-1.4.1zM469.4 160.5l.3-.6c.8-1.2 2.9-1.2 3.6.1 1.7 3.2-5.3 3.7-3.9.5zM470.6 166.9c.4-1.8 4.9-3.6 5.6-.9.7 2.6-3.4 3.6-5.1 2.2-.4-.4-.6-.9-.5-1.3zM477.4 175.2c-1.6 1.8-5.1 2.4-6.4 0-1.3-2.4 1.8-4.4 4.2-4.4 2.5 0 3.8 2.3 2.5 4.1l-.3.3z"/></g></g><g><ellipse cx="789.7" cy="186.2" rx="7.7" ry="1.6" fill="#f7c216"/><ellipse cx="820.5" cy="183.2" rx="7.7" ry="1.6" fill="#f7c216"/><ellipse cx="833.2" cy="189.2" rx="7.7" ry="1.6" fill="#f7c216"/><g fill="#ffdf5a"><path d="M819.4 169.3a.8.8 0 0 0-1.1-.6c-.5.1-.8.6-.6 1.1.9 3.1 1.9 9.9 1.6 12.7 0 .5.3.9.8 1h.1c.5 0 .9-.4.9-.8.3-3.1-.7-10.1-1.7-13.4zM817.6 167.9c.7-1.1-2.4-3.1-2.9-1.6-.6 1.5 2.1 2.8 2.9 1.6zM814.7 175.7c-.7-.2-1.6-.8-1.3-1.6.1-.4.5-.7.9-.9.5-.2 1.2-.3 1.8-.3.5.1 1.1.3 1.4.8 1.1 1.6-1.2 2.4-2.8 2zM815.6 171.6c-1.1.3-2.6-.3-2.5-1.4 0-.5.8-.8 1.2-.9.9-.1 2.6.3 2.1 1.6-.1.3-.4.6-.8.7zM817.8 178.3c.2.3.3.6.2 1-.1.6-.6 1.2-1.2 1.4-1.2.5-2.6-.2-3.5-1-.4-.4-.7-.9-.6-1.4.2-1.8 4.1-1.5 5.1 0zM819.5 168.1c-.5-.3-.6-1.1-.5-1.7.1-.6.7-1.1 1.2-1.1 1.2.2 1 2.2.1 2.7-.3.3-.6.3-.8.1zM820.9 169.4c.1-.1.1-.2.2-.4.5-.8 1.8-.8 2.3.1 1 2-3.4 2.3-2.5.3zM821.6 173.5c.3-1.2 3.1-2.3 3.6-.6.4 1.6-2.2 2.3-3.2 1.4-.3-.2-.4-.5-.4-.8zM826 178.8c-1 1.1-3.3 1.5-4.1 0-.9-1.6 1.2-2.8 2.7-2.8 1.6 0 2.4 1.4 1.6 2.7-.1 0-.2 0-.2.1z"/></g><g fill="#f78d1f"><path d="M832.3 172c-.2-.6-.8-.9-1.4-.8-.6.2-.9.8-.8 1.4 1.1 3.9 2.3 12.4 2.1 15.8 0 .6.4 1.2 1 1.2h.1c.6 0 1.1-.4 1.1-1 .3-3.7-.9-12.5-2.1-16.6zM829.9 170.3c.9-1.4-3.1-3.9-3.7-2-.6 1.9 2.8 3.5 3.7 2zM826.4 180c-.9-.2-1.9-1-1.6-2 .2-.5.6-.9 1.1-1.1.7-.3 1.5-.4 2.2-.3.7.1 1.4.4 1.7 1 1.4 2-1.5 2.9-3.4 2.4zM827.4 174.9c-1.3.4-3.3-.4-3.2-1.8 0-.7 1-1 1.5-1.1 1.2-.2 3.3.3 2.7 2-.1.4-.5.8-1 .9zM830.2 183.3c.2.4.4.8.3 1.2-.1.8-.7 1.4-1.5 1.7-1.5.6-3.3-.2-4.3-1.3-.5-.5-.8-1.1-.8-1.7.2-2.1 5.1-1.8 6.3.1zM832.4 170.6c-.6-.3-.7-1.4-.6-2.1.1-.7.8-1.4 1.6-1.3 1.6.2 1.3 2.8.2 3.4-.6.1-1 .1-1.2 0zM834.1 172.2c.1-.1.2-.3.3-.5.6-.9 2.3-.9 2.9.1 1.2 2.5-4.3 2.9-3.2.4zM835 177.3c.4-1.5 3.9-2.9 4.4-.8.5 2.1-2.7 2.9-4 1.8-.3-.3-.4-.7-.4-1zM840.5 183.9c-1.3 1.4-4.1 1.9-5.1 0-1.1-1.9 1.5-3.5 3.3-3.6 2 0 3 1.8 2 3.3-.1.1-.2.2-.2.3z"/></g><g fill="#ffdf5a"><path d="M788.3 169.3c-.2-.6-.8-.9-1.4-.8-.6.2-.9.8-.8 1.4 1.1 3.9 2.3 12.4 2.1 15.8 0 .6.4 1.2 1 1.2h.1c.6 0 1.1-.4 1.1-1 .4-3.7-.9-12.5-2.1-16.6zM786 167.6c.9-1.4-3.1-3.9-3.7-2-.6 1.9 2.8 3.5 3.7 2zM782.4 177.4c-.9-.2-1.9-1-1.6-2 .2-.5.6-.9 1.1-1.1.7-.3 1.5-.4 2.2-.3.7.1 1.4.4 1.7 1 1.5 1.9-1.4 2.9-3.4 2.4zM783.5 172.2c-1.3.4-3.3-.4-3.2-1.8 0-.7 1-1 1.5-1.1 1.2-.2 3.3.3 2.7 2-.1.5-.5.8-1 .9zM786.3 180.7c.2.4.4.8.3 1.2-.1.8-.7 1.4-1.5 1.7-1.5.6-3.3-.2-4.3-1.3-.5-.5-.8-1.1-.8-1.7.1-2.2 5-1.8 6.3.1zM788.4 167.9c-.6-.3-.7-1.4-.6-2.1.1-.7.8-1.4 1.6-1.3 1.6.2 1.3 2.8.2 3.4-.5.2-.9.1-1.2 0zM790.1 169.5c.1-.1.2-.3.3-.5.6-.9 2.3-.9 2.9.1 1.3 2.5-4.3 2.9-3.2.4zM791.1 174.6c.4-1.5 3.9-2.9 4.4-.8.5 2.1-2.7 2.9-4 1.8-.4-.3-.5-.7-.4-1zM796.5 181.2c-1.3 1.4-4.1 1.9-5.1 0-1.1-1.9 1.5-3.5 3.3-3.6 2 0 3 1.8 2 3.3 0 .2-.1.2-.2.3z"/></g></g><g><ellipse cx="1555.9" cy="171.2" rx="6.2" ry="1.3" opacity=".6" fill="#ea711f"/><g fill="#fcd001"><path d="M1556.5 160c.1-.4.5-.6.9-.5.4.1.6.5.5.9-.7 2.5-1.5 8-1.3 10.2 0 .4-.3.7-.7.8h-.1c-.4 0-.7-.3-.7-.7-.2-2.3.6-8 1.4-10.7zM1558 158.9c-.5-.9 2-2.5 2.4-1.3.3 1.3-1.8 2.3-2.4 1.3zM1560.3 165.2c.5-.1 1.3-.6 1-1.3-.1-.3-.4-.6-.7-.7-.4-.2-1-.3-1.4-.2-.4 0-.9.3-1.1.6-.9 1.3.9 1.9 2.2 1.6zM1559.6 161.9c.8.3 2.1-.2 2-1.1 0-.4-.6-.7-1-.7-.7-.1-2.1.2-1.7 1.3.1.2.4.4.7.5zM1557.8 167.3c-.2.2-.2.5-.2.8.1.5.5.9.9 1.1.9.4 2.1-.1 2.8-.8.3-.3.5-.7.5-1.1-.1-1.4-3.2-1.2-4 0zM1556.4 159.1c.4-.2.5-.9.4-1.4-.1-.5-.5-.9-1-.8-1 .1-.8 1.8-.1 2.2.3.1.5.1.7 0zM1555.3 160.2c0-.1-.1-.2-.2-.3-.4-.6-1.5-.6-1.8.1-.9 1.5 2.7 1.8 2 .2zM1554.7 163.4c-.2-.9-2.5-1.8-2.9-.5-.3 1.3 1.8 1.8 2.6 1.1.3-.1.3-.3.3-.6zM1551.2 167.7c.8.9 2.6 1.2 3.3 0 .7-1.2-.9-2.3-2.1-2.3-1.3 0-2 1.2-1.3 2.1 0 .1.1.2.1.2z"/></g><ellipse cx="1563.7" cy="174.4" rx="6.2" ry="1.3" opacity=".6" fill="#ea711f"/><ellipse cx="1581.9" cy="167.2" rx="6.2" ry="1.3" opacity=".6" fill="#ea711f"/><g fill="#f2582f"><path d="M1564.2 163.2c.1-.4.5-.6.9-.5.4.1.6.5.5.9-.7 2.5-1.5 8-1.3 10.2 0 .4-.3.7-.7.8h-.1c-.4 0-.7-.3-.7-.7-.1-2.3.7-8 1.4-10.7zM1565.7 162.1c-.5-.9 2-2.5 2.4-1.3s-1.8 2.3-2.4 1.3zM1568 168.4c.5-.1 1.3-.6 1-1.3-.1-.3-.4-.6-.7-.7-.4-.2-1-.3-1.4-.2-.4 0-.9.3-1.1.6-.9 1.3 1 1.9 2.2 1.6zM1567.3 165.1c.8.3 2.1-.2 2-1.1 0-.4-.6-.7-1-.7-.7-.1-2.1.2-1.7 1.3.2.2.4.4.7.5zM1565.5 170.5c-.2.2-.2.5-.2.8.1.5.5.9.9 1.1.9.4 2.1-.1 2.8-.8.3-.3.5-.7.5-1.1 0-1.4-3.2-1.2-4 0zM1564.2 162.3c.4-.2.5-.9.4-1.4-.1-.5-.5-.9-1-.8-1 .1-.8 1.8-.1 2.2.2.1.5.1.7 0zM1563.1 163.4c0-.1-.1-.2-.2-.3-.4-.6-1.5-.6-1.8.1-.9 1.5 2.7 1.8 2 .2zM1562.4 166.6c-.2-.9-2.5-1.8-2.9-.5-.3 1.3 1.8 1.8 2.6 1.1.3-.1.4-.3.3-.6zM1559 170.9c.8.9 2.6 1.2 3.3 0 .7-1.2-.9-2.3-2.1-2.3-1.3 0-2 1.2-1.3 2.1 0 .1 0 .2.1.2z"/></g><g fill="#fcd001"><path d="M1582.4 157.9c.1-.3.4-.5.7-.4.3.1.5.4.4.7-.6 2-1.2 6.4-1.1 8.1 0 .3-.2.6-.5.6s-.6-.2-.6-.5c-.1-1.9.5-6.4 1.1-8.5zM1583.6 157c-.4-.7 1.6-2 1.9-1 .4 1-1.4 1.8-1.9 1zM1585.5 162c.4-.1 1-.5.8-1-.1-.3-.3-.4-.6-.5-.3-.1-.8-.2-1.2-.2-.3 0-.7.2-.9.5-.6 1 .9 1.5 1.9 1.2zM1584.9 159.4c.7.2 1.7-.2 1.6-.9 0-.3-.5-.5-.8-.6-.6-.1-1.7.2-1.4 1 .2.2.4.4.6.5zM1583.5 163.7c-.1.2-.2.4-.1.6.1.4.4.7.8.9.8.3 1.7-.1 2.2-.6.2-.2.4-.6.4-.9-.2-1.2-2.7-1-3.3 0zM1582.4 157.1c.3-.2.4-.7.3-1.1-.1-.4-.4-.7-.8-.7-.8.1-.7 1.4-.1 1.7.3.2.4.2.6.1zM1581.5 158c0-.1-.1-.2-.1-.2-.3-.5-1.2-.5-1.5.1-.7 1.2 2.2 1.4 1.6.1zM1581 160.6c-.2-.8-2-1.5-2.3-.4-.3 1.1 1.4 1.5 2.1.9.2-.1.3-.3.2-.5zM1578.2 164c.6.7 2.1 1 2.6 0 .6-1-.8-1.8-1.7-1.8-1 0-1.6.9-1 1.7.1 0 .1.1.1.1z"/></g></g><g><ellipse cx="1314.5" cy="189.7" rx="6.2" ry="1.3" opacity=".6" fill="#ea711f"/><ellipse cx="1323" cy="186" rx="6.2" ry="1.3" opacity=".6" fill="#ea711f"/><ellipse cx="1348.8" cy="185.3" rx="6.2" ry="1.3" opacity=".6" fill="#ea711f"/><g fill="#efb000"><path d="M1323.4 176.6c.1-.3.4-.5.7-.4.3.1.5.4.4.7-.6 2.1-1.2 6.6-1.1 8.5 0 .3-.2.6-.6.6-.3 0-.6-.2-.6-.6-.1-1.9.6-6.6 1.2-8.8zM1324.6 175.7c-.5-.8 1.6-2.1 2-1.1s-1.5 1.9-2 1.1zM1326.5 180.9c.5-.1 1-.5.9-1.1-.1-.3-.3-.5-.6-.6-.3-.1-.8-.2-1.2-.2-.4 0-.7.2-.9.5-.7 1.2.8 1.7 1.8 1.4zM1326 178.2c.7.2 1.7-.2 1.7-.9 0-.4-.5-.6-.8-.6-.6-.1-1.7.2-1.4 1 0 .2.2.4.5.5zM1324.5 182.7c-.1.2-.2.4-.1.7.1.4.4.8.8.9.8.3 1.8-.1 2.3-.7.2-.2.4-.6.4-.9-.1-1.2-2.7-1-3.4 0zM1323.3 175.9c.3-.2.4-.7.3-1.1-.1-.4-.4-.8-.8-.7-.8.1-.7 1.5-.1 1.8.3.1.5.1.6 0zM1322.4 176.7c0-.1-.1-.2-.1-.3-.3-.5-1.2-.5-1.5.1-.8 1.4 2.2 1.6 1.6.2zM1321.9 179.4c-.2-.8-2.1-1.5-2.4-.4-.3 1.1 1.5 1.5 2.2 1 .2-.2.3-.4.2-.6zM1319 183c.7.8 2.2 1 2.7 0 .6-1-.8-1.9-1.8-1.9-1.1 0-1.6 1-1.1 1.8.2 0 .2 0 .2.1z"/></g><g fill="#fcd001"><path d="M1315.4 178.5c.1-.4.5-.6.9-.5.4.1.6.5.5.9-.7 2.5-1.5 8-1.3 10.2 0 .4-.3.7-.7.8h-.1c-.4 0-.7-.3-.7-.7-.2-2.4.6-8.1 1.4-10.7zM1316.9 177.4c-.5-.9 2-2.5 2.4-1.3.3 1.2-1.8 2.3-2.4 1.3zM1319.2 183.7c.5-.1 1.3-.6 1-1.3-.1-.3-.4-.6-.7-.7-.4-.2-1-.3-1.4-.2-.4 0-.9.3-1.1.6-.9 1.3.9 1.9 2.2 1.6zM1318.5 180.4c.8.3 2.1-.2 2-1.1 0-.4-.6-.7-1-.7-.7-.1-2.1.2-1.7 1.3.1.2.4.4.7.5zM1316.7 185.8c-.2.2-.2.5-.2.8.1.5.5.9.9 1.1.9.4 2.1-.1 2.8-.8.3-.3.5-.7.5-1.1-.1-1.5-3.2-1.2-4 0zM1315.3 177.6c.4-.2.5-.9.4-1.4-.1-.5-.5-.9-1-.8-1 .1-.8 1.8-.1 2.2.3.1.5.1.7 0zM1314.2 178.6c0-.1-.1-.2-.2-.3-.4-.6-1.5-.6-1.8.1-.9 1.6 2.7 1.8 2 .2zM1313.6 181.9c-.2-.9-2.5-1.8-2.9-.5-.3 1.3 1.8 1.8 2.6 1.1.3-.2.4-.4.3-.6zM1310.1 186.1c.8.9 2.6 1.2 3.3 0 .7-1.2-.9-2.3-2.1-2.3-1.3 0-2 1.2-1.3 2.1 0 .1.1.2.1.2z"/></g><g fill="#efb000"><path d="M1348.6 176c.1-.3.4-.5.7-.4.3.1.5.4.4.7-.6 2-1.2 6.5-1.1 8.3 0 .3-.2.6-.5.6s-.6-.2-.6-.5c-.2-1.9.5-6.5 1.1-8.7zM1349.8 175.1c-.4-.7 1.6-2.1 1.9-1 .4 1-1.4 1.9-1.9 1zM1351.7 180.3c.4-.1 1-.5.8-1.1-.1-.3-.3-.5-.6-.6-.3-.1-.8-.2-1.2-.2-.4 0-.7.2-.9.5-.6 1.1.9 1.6 1.9 1.4zM1351.1 177.6c.7.2 1.7-.2 1.7-.9 0-.4-.5-.6-.8-.6-.6-.1-1.7.2-1.4 1 .1.2.3.4.5.5zM1349.7 182c-.1.2-.2.4-.1.7.1.4.4.8.8.9.8.3 1.7-.1 2.3-.7.2-.2.4-.6.4-.9-.2-1.2-2.8-1-3.4 0zM1348.6 175.3c.3-.2.4-.7.3-1.1-.1-.4-.4-.7-.8-.7-.8.1-.7 1.5-.1 1.8.2.1.4.1.6 0zM1347.7 176.2c0-.1-.1-.2-.1-.2-.3-.5-1.2-.5-1.5.1-.8 1.2 2.1 1.4 1.6.1zM1347.2 178.8c-.2-.8-2-1.5-2.3-.4-.3 1.1 1.4 1.5 2.1.9.1-.1.2-.3.2-.5zM1344.3 182.3c.7.7 2.1 1 2.7 0 .6-1-.8-1.9-1.8-1.9s-1.6.9-1 1.7c0 .1.1.1.1.2z"/></g></g><g><ellipse cx="1747.2" cy="172.1" rx="9.2" ry="1.9" opacity=".6" fill="#ea711f"/><ellipse cx="1759.1" cy="167.3" rx="9.2" ry="1.9" opacity=".6" fill="#ea711f"/><ellipse cx="1779.8" cy="170.8" rx="9.2" ry="1.9" opacity=".6" fill="#ea711f"/><g fill="#f2582f"><path d="M1760.4 153.6c.1-.5.6-.7 1.1-.6.5.1.7.6.6 1.1-.9 3-1.8 9.6-1.6 12.2 0 .5-.3.9-.8.9h-.1c-.4 0-.8-.3-.9-.8-.2-2.8.8-9.6 1.7-12.8zM1762.2 152.3c-.7-1.1 2.4-3 2.8-1.5.5 1.4-2.1 2.7-2.8 1.5zM1764.9 159.8c.7-.2 1.5-.8 1.2-1.6-.1-.4-.5-.7-.8-.8-.5-.2-1.2-.3-1.7-.2-.5.1-1 .3-1.3.7-1.1 1.5 1.1 2.3 2.6 1.9zM1764.1 155.8c1 .3 2.5-.3 2.4-1.4 0-.5-.7-.8-1.2-.9-.9-.1-2.5.3-2.1 1.5.2.5.5.7.9.8zM1761.9 162.3c-.2.3-.3.6-.2 1 .1.6.6 1.1 1.1 1.3 1.1.4 2.5-.1 3.3-1 .4-.4.6-.8.6-1.3 0-1.7-3.8-1.4-4.8 0zM1760.3 152.5c.5-.3.6-1 .4-1.6-.1-.6-.6-1.1-1.2-1-1.2.2-1 2.2-.1 2.6.4.1.7.1.9 0zM1759 153.8c-.1-.1-.1-.2-.2-.4-.5-.7-1.8-.7-2.2.1-1.1 1.9 3.2 2.2 2.4.3zM1758.2 157.7c-.3-1.1-3-2.2-3.4-.6-.4 1.6 2.1 2.2 3.1 1.4.3-.3.4-.6.3-.8zM1754.1 162.8c1 1.1 3.2 1.5 3.9 0 .8-1.5-1.1-2.7-2.6-2.7s-2.4 1.4-1.5 2.6c.1 0 .1 0 .2.1z"/></g><g fill="#fcd001"><path d="M1748 155.7c.2-.6.8-.9 1.3-.7.6.2.9.8.7 1.3-1.1 3.7-2.2 12-2 15.3 0 .6-.4 1.1-1 1.2h-.1c-.6 0-1-.4-1.1-1-.2-3.7 1.1-12.2 2.2-16.1zM1750.2 154c-.8-1.4 2.9-3.8 3.6-1.9.6 1.9-2.6 3.4-3.6 1.9zM1753.7 163.4c.8-.2 1.9-1 1.6-1.9-.2-.5-.6-.8-1.1-1-.6-.3-1.5-.4-2.2-.3-.7.1-1.3.4-1.7.9-1.3 1.9 1.5 2.8 3.4 2.3zM1752.6 158.5c1.3.4 3.2-.3 3.1-1.7 0-.7-.9-1-1.5-1.1-1.1-.2-3.2.3-2.6 1.9.2.5.6.7 1 .9zM1750 166.6c-.2.3-.3.8-.3 1.2.1.8.7 1.4 1.4 1.7 1.4.6 3.2-.2 4.2-1.2.4-.4.8-1 .8-1.7-.2-2.2-4.9-1.8-6.1 0zM1747.9 154.3c.6-.3.7-1.3.6-2-.1-.7-.8-1.4-1.5-1.3-1.5.2-1.2 2.7-.1 3.2.4.3.7.3 1 .1zM1746.3 155.9c-.1-.1-.1-.3-.3-.5-.6-.9-2.2-.9-2.8.1-1.2 2.4 4.1 2.8 3.1.4zM1745.3 160.8c-.3-1.4-3.8-2.8-4.3-.7-.5 2 2.6 2.8 3.9 1.7.4-.3.5-.7.4-1zM1740.1 167.2c1.2 1.4 3.9 1.8 4.9 0 1-1.9-1.4-3.4-3.2-3.4-1.9 0-2.9 1.7-1.9 3.2.1 0 .1.1.2.2z"/></g><g fill="#f2582f"><path d="M1780.8 154.1c.2-.6.8-.9 1.3-.7.6.2.9.8.7 1.3-1.1 3.7-2.2 12-2 15.3 0 .6-.4 1.1-1 1.2h-.1c-.6 0-1-.4-1.1-1-.2-3.7 1-12.2 2.2-16.1zM1783 152.4c-.8-1.4 2.9-3.8 3.6-1.9.6 1.8-2.7 3.4-3.6 1.9zM1786.5 161.8c.8-.2 1.9-1 1.6-1.9-.2-.5-.6-.8-1.1-1-.6-.3-1.5-.4-2.2-.3-.7.1-1.3.4-1.7.9-1.3 1.9 1.5 2.8 3.4 2.3zM1785.4 156.9c1.3.4 3.2-.3 3.1-1.7 0-.7-.9-1-1.5-1.1-1.1-.2-3.2.3-2.6 1.9.2.4.6.7 1 .9zM1782.7 165c-.2.3-.3.8-.3 1.2.1.8.7 1.4 1.4 1.7 1.4.6 3.2-.2 4.2-1.2.4-.4.8-1 .8-1.7-.1-2.2-4.8-1.8-6.1 0zM1780.7 152.7c.6-.3.7-1.3.6-2-.1-.7-.8-1.4-1.5-1.3-1.5.2-1.2 2.7-.1 3.2.4.3.7.2 1 .1zM1779 154.3c-.1-.1-.1-.3-.3-.5-.6-.9-2.2-.9-2.8.1-1.2 2.4 4.2 2.8 3.1.4zM1778.1 159.1c-.3-1.4-3.8-2.8-4.3-.7-.5 2 2.6 2.8 3.9 1.7.4-.3.5-.6.4-1zM1772.9 165.5c1.2 1.4 3.9 1.8 4.9 0 1-1.9-1.4-3.4-3.2-3.4-1.9 0-2.9 1.7-1.9 3.2.1.1.1.2.2.2z"/></g></g></g><g><path d="M858.6 76.2c3.3 5.7 10.9 5.8 13.7 12.1 1.6 3.7 2 6.7 5.2 9.4 2.8 2.4 6.6 2.8 10.1 2.2.1 0-.1-1.9 0-1.9-7.7 1.5-12.7-3.3-14.8-10.3-2.3-7.5-10.6-7.2-14.2-13.5.3.6-.3 1.6 0 2z" fill="#127fd2"/><path d="M856.8 74.1c5.6 8.8 18.6 2.6 24.3 11.4 2.6 4 4 6.6 9.2 6.7 4.5.1 8-3.6 10.4-6.9.3-.4-.3-1.5 0-1.9-2.6 3.7-5.7 6.5-10.4 6.9-4.8.5-7.2-3.1-9.2-6.7-4.8-9.2-18.7-2.7-24.3-11.4.2.5-.3 1.5 0 1.9zM848.2 54.2c-.3.1-13.4-.9-13.4-.9l7.2 6.8 6.2-5.9z" fill="#2eaaef"/><path d="M860.5 77.5s-12-23.4-12.3-23.3l-6.3 5.8 18.6 17.5zM834.7 53.3l1.7 11.8 5.5-5.1z" fill="#127fd2"/><path fill="#2eaaef" d="M841.9 60l-5.5 5.1 24.1 12.4z"/><g><path d="M841.6 60.4s.9-.1 2.7-.1c1.7 0 4.3 0 7.5.6 1.6.3 3.4.8 4.9 2.1.8.6 1.3 1.6 1.4 2.7.1 1.1-.2 2.2-.7 3.2-1 2-2.7 3.8-4.6 5.6-1.9 1.7-4 3.4-6.3 4.9-4.6 3.2-9.8 6.2-15.5 9-5.7 2.9-11.8 5.6-18.3 8.3-12.9 5.3-27 10-41.2 14.1-7.1 2.1-14.3 3.9-21.4 5.8-3.5.9-7.1 1.7-10.5 2.6-3.5.8-6.9 1.6-10.3 2.3-3.4.7-6.7 1.4-10 2.1-3.3.7-6.5 1.3-9.6 1.9-6.3 1.2-12.2 2.3-17.7 3.2-5.5.9-10.5 1.7-15 2.4-4.5.6-8.4 1.2-11.6 1.6-6.4.8-10.1 1.1-10.1 1.1s3.7-.4 10.1-1.3c3.2-.4 7.1-1 11.6-1.7s9.5-1.5 15-2.5 11.4-2.1 17.7-3.3c3.1-.6 6.3-1.3 9.6-2s6.6-1.4 10-2.2c3.4-.8 6.8-1.6 10.3-2.4 3.5-.8 7-1.7 10.5-2.5 7.1-1.8 14.3-3.6 21.4-5.7 14.3-4.1 28.3-8.8 41.2-14 6.4-2.6 12.6-5.3 18.3-8.2 5.7-2.9 10.9-5.8 15.5-9 2.3-1.6 4.4-3.2 6.3-4.9 1.9-1.7 3.5-3.5 4.6-5.5.5-1 .8-2.1.8-3.1-.1-1-.6-2-1.4-2.6-1.5-1.3-3.3-1.7-4.9-2.1-3.2-.6-5.8-.6-7.5-.6-1.8.2-2.8.2-2.8.2z" fill="#FFF"/></g><g><ellipse transform="rotate(-11.8 644.593 112.994)" cx="644.6" cy="113" rx="6.7" ry="7.4" fill="#f7c9a8"/><path d="M644.6 123c.4 0 .8 0 1.2-.1.4-.1.7-.3.9-.6.1-.2.1-.5.1-.7v-1.8c0-.4 0-.9-.4-1.1-.3-.2-.7-.1-1-.1-.7.1-1.5.3-1.8.8-.1.3-.1.6-.1.8 0 .6.1 1.3.1 1.9 0 .1 0 .3.1.4.1.4.5.4.9.5z" fill="#f7c9a8"/><path d="M645.8 116.9l-1.7.2s-1.6.2-1.7.3-.6 1.8-.6 1.8l.3.6c.6.3 1.1.5 1.7.6 0 .6.1 1.3.1 1.9v.1l1.9.5 1.2-.5s0-.1.1-.1c.1-.2.1-.5.1-.7V120c.8-.3 1.5-.8 2.1-1.4-1.3.5-2.9-.3-3.5-1.7zM646.1 115c0-.1-.1-.2-.2-.3s-.2-.1-.3-.1c-.2.1-.2.3-.2.5s.2.3.3.5c.1.1.2.2.3.2.1 0 .1-.1.1-.2.1-.3.1-.5 0-.6z" fill="#ebb59a"/><path d="M647 111.1c-.1-.1-.2-.2-.4-.3.2.1-.2 1.3-.2 1.5-.1.6-.1 1.1 0 1.7-.4-.4-1.1-.6-1.5-.1-.2.3-.3.6-.3 1 0 .8.5 1.5 1.2 1.9-.1.7-.1 1.4-.5 2.1-.3-.5-.7-.8-1.2-1.1-.2.6-.3 1.2-.2 1.8-.4-.3-.9-.5-1.2-.9.1.6.3 1.1.7 1.6-.1-.1-.8-.2-1-.3-.4-.1-.8-.3-1.2-.5-.8-.5-1.7-1.3-2.3-2.1-.5-.6-1.4-1.9-1.2-2.8-.1.5-.1.9-.2 1.4-.4-1.1-.7-2.5-.5-3.6.1-.9.2-2.1.9-2.8-.4.5-.8 1-1.1 1.6.8-3.6 4.2-6.5 8-6.2 1.9.2 3.6 1.1 4.8 2.5.9 1 1.2 2.2 1.5 3.5-.2-.9-1.3-1.5-2-1.8.1 1.1.1 2.7-.5 3.7-.7-.6-1-1.3-1.6-1.8z" fill="#281b18"/><path d="M643.3 125.6c-.8.3-.9 1.3-1 2.1-.3 3-.5 5.9-.8 8.9-.1 1.4-.2 2.8.4 4 .6 1.2 2.3 1.9 3.4 1.1.8-.6.9-1.7 1-2.8.2-3.8.4-7.6-.6-11.3-.2-.6-.4-1.2-.8-1.6s-1-.6-1.6-.4zM649 175.5c.5-.5.9-1.1 1.4-1.8 1-1.5.3-3.3.3-5l.3-10.4c.1-2.3.1-4.6.1-6.9 0-.9 0-1.8-.3-2.7-.5-2.1-2.7-2.1-4.4-1.7-.9.2-.9.3-.9 1.1-.1.7.3 1.4.4 2 .6 2.4.7 4.9.8 7.4.1 2.6.2 5.5-.3 8.1-.6 2.7-1.2 5.5-1.8 8.2-.1.6-.3 1.2 0 1.8.3.7 1.2.9 1.9.9 1 .1 1.8-.4 2.5-1z" fill="#127fd2"/><path d="M644.4 175.9c-.2.4-.4.8-.6 1.3-.3.9-.7 2.5-.1 3.4.6.8 1.8 1.1 2.8 1.2 1.5.1 2.7.4 4.2.4.6 0 1.3 0 1.8-.2.6-.2 1.1-.7 1.2-1.3.1-.8-.5-1.5-1.2-2-1.4-1-2.7-1.4-3.6-3-.7-1.3-1.8-1.8-3.1-1.1-.5.4-1 .8-1.4 1.3z" fill="#412e2a"/><path d="M646 172.8c-.5.8-1.2 1.5-1.7 2.4-.4.6-.8 1.4-.7 2.2.2 1 1 1.8 1.9 2.3 1.6 1.1 3 2.5 5.1 2.7 1.1.1 3.1.1 2.9-1.5-.1-.6-.5-1.2-1-1.6-.5-.4-1-.8-1.4-1.4-.5-.7-.7-1.6-.7-2.5 0-.8-.2-1.6-.9-2-.6-.4-1.6-.4-2.3-.3-.6.1-.8-.9-1.2-.3z" fill="#281b18"/><path d="M649.8 176.5c.5.3.9.5 1 .6-.1-.8.5-1.5.9-2.2.4-.7 1-1.4 1.4-2.2.4-.7.7-1.5 1-2.2.4-1 .7-2.1 1-3.2.6-2.2 1.1-4.6 1.2-6.9.2-3.5-.8-7-.5-10.6.1-.7.2-1.4.3-2.2.1-.5.5-1.2.1-1.6-.2-.2-.4-.2-.7-.3-.8-.1-1.4.1-2.1.2-.6 0-1.1-.2-1.8 0-1.5.5-2.2 2.3-2.1 3.7.3 3.4.8 6.7.6 10.1-.1 2.7-.5 5.4-1.5 7.9-.4 1.1-1 2.2-1.6 3.2-.8 1.2-1.6 2.4-2.3 3.6.4-.5 3.5 1.2 5.1 2.1z" fill="#1797eb"/><path d="M647.5 150.9c1.8-.1 3.9-1.3 5.2-1.7 1.3-.5 2.6-.9 3.8-1.5.9-.5 2.1-1.4 2.4-2.4.2-.6 0-1.3-.2-1.9-.4-.9-.8-1.8-1.3-2.6-1.1-1.8-2.1-3.6-3.1-5.5-.4-.8-.9-1.6-1.3-2.4-.4-.9-.8-1.9-1.1-2.8-.4-1.3-.8-2.6-1.5-3.8-.7-1.2-1.9-2.1-3.3-2.2-1.4 0-2.7 1-3.4 2.3-.7 1.3-.7 2.6-.7 4.1.1 1.7 0 3.4.1 5.1.2 4.4.4 8.9 1.5 13.1.2.6.4 1.2.8 1.6.6.5 1.3.7 2.1.6z" fill="#1797eb"/><path d="M654.3 135.2c-.4-.8-.9-1.6-1.3-2.4-.3-.6-.5-1.2-.8-1.8-1.7-1.7-3.5-3.2-5.4-4.7.3 1.3.8 2.6 1.5 3.7.8 1.3 1.6 2.5 2.5 3.7 1.3 1.7 2.8 3.3 4.6 4.5.2.1.3.2.5.2h.1c-.5-1-1.1-2.1-1.7-3.2z" fill="#127fd2"/><path d="M664.6 133.4c.7-.2 1.5-.5 2.2-.8.6-.3 1.3-.6 1.7-1.1.4-.5.6-1.3.3-1.9-.4-.7-1.3-.8-2.1-.8-2 .1-4 .7-6 1-1.4.2-3 .3-4.4-.2-.6-.2-1.1-.5-1.7-.7-.6-.2-1.2-.7-1.7-1.1-.8-.8-1.2-1.7-1.8-2.6-.5-.8-.9-1.7-2-1.9-1.5-.3-2.5 1.1-2.4 2.4 0 .7.3 1.4.7 2 1.1 2.1 2.8 3.6 4.7 4.9 1 .7 1.9 1 3 1.2 2.3.5 4.9.7 7.2.2.8-.1 1.6-.3 2.3-.6z" fill="#1797eb"/><path d="M643.1 131.3c-.1.5-.1.9-.1 1.4 0 .1 0 .3-.1.4-.1.1-.2.3-.4.2-.2-.1-.1-.2-.1-.3 0-.4-.1-.6-.1-1v-1.1c.1-.6.2-1.3.3-1.9.1-.5.3-1 .6-1.5.4-.9 1.2-1.6 1.9-2.2l1.2-.9c.4-.2.9-.4 1.3-.5-.6.2-1.1.6-1.5 1.1-1.7 1.6-2.7 3.9-3 6.3z" fill="#127fd2"/><path d="M650.3 124c.1.1.3.3.4.5-.2-1.5-1.1-2.5-2.3-3.3-1.2-.8-3.3-.3-4.5.1-1.2.4-2.8 1-3.6 2.1-1.3 1.9-.2 5.1 1.9 6-.4-.2 1.6-2.6 1.7-2.7 1.2-1.2 2.7-2.6 4.4-3 .9-.2 1.5-.1 2 .3z" fill="#61bef2"/><path d="M649.8 159.8c.4-.1.5-.5.5-.9.2-3.1 1.6-6.3 4.1-8.1.5-.4 1-.7 1.5-1.1.1-.6.1-1.2.2-1.8-1.1.5-2.3.9-3.5 1.4-1 .4-2.5 1.2-4 1.6-.3 1-.4 2.1-.5 3.1-.1 1.8 0 3.8.9 5.4.3.1.5.4.8.4z" fill="#127fd2"/><path d="M666.7 128.9c-.6 0-1.1.1-1.7.2.9 1.1 1.4 2.2 1.3 3.6v.1c.1-.1.3-.1.4-.2.6-.3 1.3-.6 1.7-1.1.4-.5.6-1.3.3-1.9-.3-.6-1.2-.8-2-.7z" fill="#f7c9a8"/></g><g><path d="M683 118c.6-1.7 1.9-3.1 3.6-3.7 4.2-1.4 7.4 2.6 7.9 6.4.2 2.1-.2 4.4-1.8 5.9-1.5 1.4-3.5 2.2-5.6 1.7-2.3-.6-4.2-2.6-4.6-5s-.3-3 .5-5.3z" fill="#f7c9a8"/><path d="M675.8 112.6c-.4 1.8 0 3.8.4 5.6.9 4.3 2.4 8 4.6 11.8 1.3 2.2 3.1 5 5.3 6.4.7.4 1.8.4 2.1-.5.4-1.1-1-2.5-1.6-3.3-.6-.8-1-1.7-1.6-2.6-1.3-2.2-2.6-4.3-3.5-6.7-.7-1.8-1.2-3.8-1.8-5.7-.5-1.7-.5-3.6-1.3-5.3-.6-1.4-2.2-1.6-2.6.3 0-.1 0 0 0 0z" fill="#b32600"/><path d="M686 179.6c.1 1 .4 2 1.2 2.5.7.4 1.7.8 2.3 0 .9-1.3.5-3.3.4-4.7 0-1.3-.1-2.7-.1-4 0-1.2.1-2.6-.3-3.8-.4-1-2.2-1.9-3.1-1.1-.6.5-.5 1.5-.4 2.2 0 2.1.1 4.2.1 6.4-.1.7-.2 1.6-.1 2.5zM694.2 182.3c.6-.1 1.3-.6 1.5-1.2.3-.6.3-1.3.3-2v-8c0-1.2-.2-3.9-2-3.6-1.6.2-1.9 2.5-1.9 3.8 0 1.2.1 2.4.1 3.6.1 2 .1 4.1.6 6 .1.4.2.8.4 1 .3.3.6.4 1 .4z" fill="#291c18"/><path d="M685.5 186v-2.7c0-.7-.2-1.7.2-2.4.5-.8 1.9-.6 2.7-.6h.9c.6.1 1 .7 1.2 1.2.1.5-.1 1.1.1 1.6.2.7.9 1.3 1.3 2 .5.8.7 1.7.6 2.6 0 .1 0 .3-.1.3-.1.1-.2.1-.4.1-1.5.1-3.1.1-4.6.1-.6 0-1.4-.2-1.7-.7-.2-.3-.2-.7-.2-1.1v-.4z" fill="#694939"/><path d="M692.3 186v-2.7c0-.7-.2-1.7.2-2.4.5-.8 1.9-.6 2.7-.6h.9c.6.1 1 .7 1.2 1.2.1.5-.1 1.1.1 1.6.2.7 1.2 1.2 1.6 1.8.6.8.8 1.7.7 2.7 0 .2 0 .3-.1.5s-.4.2-.6.2c-1.6 0-3.2-.1-4.8-.1-.6 0-1.4-.2-1.7-.7-.2-.3-.2-.7-.2-1.1v-.4z" fill="#694939"/><path d="M681.7 163.9c-.2 1.3-.5 2.8-.2 4.1.8 2.8 4.3 2 6.5 2 1.9 0 3.9.1 5.8 0 2.4-.2 5.5.6 6.3-2.3.5-1.9-.1-3.9-.5-5.7-.7-3.4-1.5-6.7-2.3-10.1-.9-3.9-1.3-7.7-1.4-11.7-.1-2.1.9-5.2 2-7 1.3-2.2 3.8-3.8 5.3-5.9 2.8-3.9 5-8.4 5.3-13.3.1-1.4 0-5.1-2.4-3.4-1.8 1.2-1.6 4.8-2 6.6-.3 1.5-1.2 3-2 4.3-1.9 3-4.5 5.7-7.7 7.4-.9.5-2 .8-3 1-.9.1-1.6-.1-2.4.2-1.7.7-3.2 2-4 3.6-1.1 2.1-.8 3.9-.5 6.1.4 2.2.5 4.5.1 6.7-.6 3.7-1.3 7.3-1.9 11-.2 2-.7 4.2-1 6.4z" fill="#e24217"/><path d="M692.9 148.7c2.2-.5 3.2-1.1 3.7-1.5-.3-2.3-.5-4.6-.5-7-.1-2.1.9-5.2 2-7-.5-.8-1.3-1.5-2.1-1.9-1.3-.7-2.9-1-4.4-1.1-1-.1-2-.1-3 0-1.4.7-2.7 1.9-3.4 3.3-1.1 2.1-.8 3.9-.5 6.1.4 2.2.5 4.5.1 6.7-.6 3.7-1.3 7.3-1.9 11-.3 1.8-.7 3.5-1 5.3.5-2.1 1.5-4.7 2.8-7.4 1.7-3.3 4.6-5.7 8.2-6.5z" fill="#b32600"/><path d="M682.9 136.3c.6 2.7 2.2 5.3 4.7 6.6-.4-.7-.3-1.6.2-2.1.4.8 1 1.4 1.8 1.8-.1 0 0-.7 0-.8.1-.2.2-.4.4-.5.1.4.3.8.4 1.2 1.2-.9 2-2.3 2.3-3.8.2 1-.1 2.1-.3 3 2.8-1.8 4.1-5.7 3-8.8 2.1 2.1 4.4 4.5 4.7 7.4.9-2.4.9-5.2 0-7.5-.8-2.1-2.5-4-4-5.7-.8-.9-1.4-1.7-2-2.7-.6-1-1.1-1.9-1.4-3.1-.1-.6-.2-1.2-.2-1.8 0-.1.2-1.7.2-1.7.8.2 1.6 1.2 1.7 2.1-.1-2.9-2.4-5.8-5.2-6.4-2.6-.6-5.4.5-7 2.5-1.3 1.6-1.9 3.7-1.6 5.7.3 2.1 1.5 3.9 2 5.9.6 2.9-.3 5.8.3 8.7z" fill="#281b18"/><path d="M684.6 113.4c1.2-.6 2.5-.9 3.7-.5 3.6 1.1 3.3 6 2.3 9-.7 2.3-2.4 4.3-4.6 4.9-3.3.9-6.5-1.9-6.5-5.4.1-3.4 2.2-6.7 5.1-8zM694.8 146.3c1-.2 2.2-.3 2.3-1.5.1-.8-.5-1.5-1.4-1.4-.8.1-1.7.2-2.5.3-1.7.1-3.4.2-5 .1-.7 0-1.4-.1-2-.1-.5 0-1.1 0-1.5.3-.6.4-.6 1.7 0 2 .9.4 2.3.4 3.2.5 2.1.2 4.7.2 6.9-.2z" fill="#e24217"/><path d="M706.3 110.4c-1.2.8-1.5 2.7-1.7 4.4.5.5 1.2.8 1.9.9.7.1 1.5-.1 2.1-.6.1-.4.1-.9.1-1.3.1-1.4 0-5-2.4-3.4z" fill="#f7c9a8"/><path d="M703.9 115.3c-.1.5-.1 1 .1 1.3.2.3.6.4.9.5.9.2 1.8.4 2.7.5.2 0 .4 0 .6-.1.3-.1.4-.4.5-.7.2-.6.4-1.2 0-1.7-.2-.3-.6-.4-.9-.6-.8-.3-1.5-.5-2.3-.6-.3-.1-.7-.1-1 .1-.4.4-.5.9-.6 1.3z" fill="#f2582f"/><path d="M677.7 117.1c.7-.2 1.3-.8 1.7-1.4-.2-1.2-.4-2.4-.9-3.5-.7-1.4-2.2-1.5-2.7.3v.1c-.3 1.5-.1 3 .2 4.5.5.2 1.1.2 1.7 0z" fill="#f7c9a8"/><path d="M675.4 117.1c.1.4.3.9.7 1.1.3.2.7.1 1 0 .9-.2 1.8-.4 2.6-.7.2-.1.4-.2.5-.3.2-.2.1-.6.1-.8-.1-.6-.2-1.3-.8-1.5-.3-.2-.7-.1-1.1-.1-.8.1-1.6.3-2.4.5-.3.1-.7.2-.9.5 0 .4.1.9.3 1.3z" fill="#e24217"/><path d="M691.3 118.9c-.6 4.7-9.4 8.7-11.3 4.6.9 2.5 3.5 4.1 6.1 3.4 2.2-.6 3.9-2.6 4.6-4.9.3-1 .5-2.1.6-3.1z" fill="#b32600"/><path d="M691.1 118.7z" fill="#c92b00"/></g></g></svg>